<svg width="288" height="717" viewBox="0 0 288 717" fill="none" xmlns="http://www.w3.org/2000/svg">
<g opacity="0.2">
<path d="M266.952 479.385C266.952 482.1 266.877 484.792 266.729 487.461L267.228 487.489C266.927 492.923 266.325 498.263 265.441 503.505L264.948 503.422C264.048 508.755 262.854 513.988 261.386 519.119L261.866 519.257C260.381 524.446 258.617 529.531 256.592 534.509L256.129 534.321C254.11 539.286 251.831 544.146 249.313 548.898L249.755 549.132C247.245 553.868 244.497 558.497 241.532 563.018L241.114 562.744C238.186 567.208 235.044 571.567 231.708 575.818L232.101 576.127C228.799 580.335 225.306 584.437 221.642 588.432L221.274 588.094C217.669 592.025 213.897 595.851 209.976 599.572L210.32 599.935C206.439 603.618 202.411 607.198 198.255 610.673L197.934 610.29C193.831 613.719 189.602 617.047 185.263 620.271L185.561 620.672C181.26 623.867 176.852 626.96 172.351 629.949L172.075 629.533C167.611 632.498 163.056 635.361 158.426 638.12L158.682 638.55C154.064 641.302 149.371 643.952 144.619 646.497L144.383 646.056C139.643 648.594 134.844 651.029 130.001 653.358L130.218 653.808C125.356 656.146 120.45 658.378 115.515 660.503L115.318 660.043C110.36 662.178 105.373 664.203 100.372 666.119L100.551 666.586C95.4961 668.522 90.4273 670.345 85.3602 672.055L85.2003 671.582C80.0641 673.315 74.9296 674.931 69.8135 676.429L69.954 676.909C64.7272 678.439 59.5196 679.845 54.3489 681.126L54.2286 680.641C48.9417 681.95 43.6935 683.129 38.5032 684.174L38.6019 684.664C33.2301 685.746 27.92 686.686 22.6925 687.481L22.6173 686.987C17.1835 687.813 11.8398 688.484 6.60976 688.996L6.65846 689.493C1.15601 690.032 -4.2215 690.396 -9.44658 690.581L-9.46436 690.082C-12.1814 690.178 -14.8568 690.227 -17.4867 690.227C-20.2667 690.227 -23.007 690.115 -25.7076 689.896L-25.7481 690.394C-31.3336 689.941 -36.7517 689.028 -42.0037 687.686L-41.8799 687.201C-47.2083 685.839 -52.3652 684.033 -57.3524 681.815L-57.5556 682.272C-62.5525 680.049 -67.3791 677.414 -72.0367 674.4L-71.765 673.98C-76.2985 671.046 -80.6726 667.749 -84.8886 664.118L-85.2148 664.497C-89.3048 660.975 -93.2452 657.142 -97.0372 653.024L-96.6694 652.685C-100.316 648.725 -103.825 644.499 -107.199 640.033L-107.598 640.334C-110.848 636.031 -113.972 631.505 -116.97 626.778L-116.547 626.51C-119.438 621.953 -122.211 617.208 -124.869 612.294L-125.309 612.532C-127.883 607.772 -130.348 602.856 -132.705 597.799L-132.252 597.588C-134.544 592.671 -136.733 587.622 -138.821 582.455L-139.285 582.642C-141.319 577.609 -143.257 572.465 -145.099 567.226L-144.627 567.06C-146.432 561.927 -148.144 556.702 -149.766 551.399L-150.244 551.545C-151.84 546.324 -153.348 541.026 -154.768 535.667L-154.285 535.538C-155.683 530.263 -156.995 524.928 -158.223 519.544L-158.71 519.656C-159.928 514.317 -161.062 508.931 -162.114 503.51L-161.623 503.415C-162.667 498.034 -163.629 492.619 -164.511 487.182L-165.004 487.262C-165.883 481.838 -166.682 476.392 -167.401 470.937L-166.905 470.872C-167.623 465.419 -168.261 459.957 -168.82 454.496L-169.317 454.547C-169.878 449.062 -170.359 443.58 -170.76 438.111L-170.262 438.075C-170.665 432.573 -170.988 427.085 -171.231 421.625L-171.731 421.647C-171.977 416.113 -172.141 410.608 -172.223 405.142L-171.723 405.135C-171.764 402.382 -171.785 399.64 -171.785 396.91C-171.785 394.314 -171.734 391.707 -171.633 389.09L-172.132 389.071C-171.931 383.876 -171.533 378.644 -170.948 373.386L-170.451 373.441C-169.878 368.287 -169.124 363.108 -168.199 357.914L-168.691 357.826C-167.78 352.712 -166.702 347.583 -165.468 342.451L-164.981 342.568C-163.767 337.519 -162.4 332.467 -160.889 327.42L-161.367 327.277C-159.873 322.288 -158.238 317.304 -156.47 312.335L-155.999 312.503C-154.253 307.598 -152.378 302.708 -150.38 297.84L-150.842 297.65C-148.86 292.821 -146.758 288.015 -144.542 283.24L-144.089 283.451C-141.893 278.718 -139.586 274.017 -137.176 269.354L-137.62 269.124C-135.218 264.479 -132.713 259.872 -130.112 255.313L-129.678 255.561C-127.086 251.018 -124.4 246.522 -121.624 242.081L-122.048 241.816C-119.269 237.369 -116.402 232.977 -113.453 228.649L-113.04 228.93C-110.087 224.597 -107.053 220.327 -103.944 216.128L-104.346 215.831C-101.217 211.606 -98.0131 207.454 -94.7406 203.384L-94.3509 203.697C-91.0575 199.6 -87.695 195.586 -84.2705 191.662L-84.6471 191.333C-81.1826 187.364 -77.6548 183.488 -74.0712 179.713L-73.7085 180.057C-70.0754 176.231 -66.385 172.509 -62.6453 168.901L-62.9925 168.541C-59.1839 164.867 -55.3242 161.31 -51.4215 157.882L-51.0915 158.258C-47.1169 154.766 -43.0979 151.407 -39.0436 148.192L-39.3543 147.8C-35.1991 144.505 -31.0065 141.359 -26.7859 138.375L-26.4972 138.783C-22.1658 135.721 -17.8053 132.829 -13.4261 130.119L-13.6892 129.694C-9.15218 126.886 -4.59457 124.273 -0.0278168 121.869L0.205109 122.311C4.9128 119.833 9.62936 117.577 14.3422 115.557L14.1453 115.098C19.0568 112.993 23.9653 111.145 28.8566 109.57L29.0099 110.046C34.0843 108.411 39.1386 107.071 44.1571 106.044L44.0569 105.555C49.2834 104.485 54.4729 103.754 59.6075 103.381L59.6437 103.88C62.2603 103.69 64.8622 103.594 67.447 103.594C70.1272 103.594 72.8001 103.751 75.4644 104.059L75.5219 103.562C80.8032 104.173 86.0494 105.375 91.2502 107.121L91.091 107.595C96.0525 109.261 100.975 111.428 105.851 114.057L106.088 113.617C110.677 116.091 115.222 118.972 119.714 122.227L119.421 122.632C123.647 125.694 127.829 129.089 131.96 132.791L132.293 132.419C136.209 135.928 140.077 139.71 143.892 143.743L143.529 144.086C147.13 147.894 150.686 151.925 154.19 156.162L154.576 155.843C157.94 159.91 161.258 164.166 164.523 168.591L164.121 168.888C167.262 173.145 170.356 177.561 173.398 182.119L173.814 181.842C176.765 186.262 179.667 190.817 182.517 195.491L182.091 195.751C184.861 200.294 187.583 204.951 190.254 209.709L190.69 209.464C193.303 214.12 195.867 218.872 198.378 223.708L197.934 223.938C200.397 228.681 202.81 233.505 205.17 238.398L205.621 238.181C207.948 243.008 210.225 247.903 212.447 252.854L211.991 253.059C214.187 257.953 216.331 262.902 218.419 267.897L218.88 267.704C220.955 272.665 222.975 277.671 224.938 282.71L224.472 282.892C226.426 287.907 228.323 292.957 230.162 298.029L230.632 297.859C232.471 302.932 234.251 308.028 235.97 313.138L235.496 313.297C237.218 318.416 238.879 323.549 240.476 328.685L240.953 328.536C242.561 333.706 244.104 338.88 245.58 344.046L245.1 344.183C246.589 349.395 248.01 354.599 249.36 359.785L249.844 359.659C251.214 364.918 252.51 370.158 253.732 375.369L253.245 375.483C254.487 380.781 255.651 386.048 256.735 391.272L257.225 391.17C258.333 396.514 259.357 401.814 260.294 407.056L259.802 407.144C260.764 412.524 261.634 417.844 262.408 423.089L262.903 423.016C263.704 428.441 264.404 433.786 264.999 439.038L264.502 439.094C265.123 444.575 265.629 449.953 266.017 455.211L266.515 455.174C266.923 460.711 267.201 466.116 267.342 471.369L266.842 471.382C266.915 474.092 266.952 476.76 266.952 479.385Z" stroke="#FFA800" stroke-dasharray="16 16"/>
<path d="M287.499 486.62C287.499 489.35 287.43 492.06 287.292 494.748L287.791 494.774C287.51 500.238 286.95 505.615 286.124 510.902L285.63 510.825C284.792 516.194 283.679 521.471 282.309 526.654L282.793 526.782C281.404 532.034 279.753 537.189 277.854 542.247L277.386 542.071C275.49 547.122 273.348 552.075 270.975 556.929L271.424 557.149C269.053 561.999 266.454 566.75 263.642 571.4L263.215 571.141C260.435 575.739 257.447 580.239 254.268 584.638L254.673 584.931C251.522 589.291 248.184 593.553 244.675 597.714L244.292 597.392C240.832 601.495 237.204 605.501 233.424 609.409L233.784 609.757C230.042 613.625 226.152 617.397 222.128 621.07L221.791 620.701C217.821 624.326 213.72 627.855 209.502 631.288L209.818 631.676C205.642 635.074 201.352 638.378 196.963 641.586L196.668 641.182C192.322 644.358 187.878 647.439 183.348 650.425L183.624 650.843C179.117 653.814 174.526 656.691 169.865 659.471L169.608 659.042C164.972 661.807 160.266 664.478 155.503 667.052L155.741 667.492C150.979 670.065 146.161 672.543 141.299 674.922L141.079 674.473C136.217 676.853 131.312 679.135 126.376 681.319L126.578 681.776C121.612 683.972 116.615 686.069 111.6 688.065L111.415 687.6C106.367 689.609 101.3 691.516 96.2279 693.319L96.3954 693.79C91.2602 695.615 86.1204 697.334 80.9897 698.945L80.8399 698.468C75.6377 700.102 70.4451 701.625 65.2766 703.036L65.4083 703.518C60.1342 704.957 54.8852 706.28 49.6769 707.484L49.5642 706.997C44.2191 708.233 38.917 709.345 33.6748 710.33L33.7671 710.821C28.3506 711.839 22.9976 712.722 17.7267 713.469L17.6566 712.974C12.1996 713.747 6.83125 714.374 1.57202 714.852L1.61729 715.35C-3.91893 715.853 -9.33499 716.193 -14.607 716.366L-14.6234 715.866C-17.3494 715.955 -20.0365 716 -22.6815 716C-25.4564 716 -28.195 715.899 -30.8974 715.699L-30.9343 716.197C-36.5036 715.785 -41.9209 714.955 -47.1874 713.734L-47.0744 713.247C-52.4305 712.005 -57.63 710.355 -62.6744 708.324L-62.8611 708.788C-67.935 706.745 -72.8522 704.319 -77.6138 701.536L-77.3615 701.104C-82.0301 698.375 -86.5498 695.301 -90.9214 691.907L-91.228 692.302C-95.4962 688.988 -99.6228 685.371 -103.609 681.473L-103.259 681.116C-107.103 677.357 -110.817 673.337 -114.402 669.075L-114.784 669.397C-118.254 665.271 -121.603 660.921 -124.83 656.366L-124.422 656.077C-127.537 651.68 -130.54 647.09 -133.43 642.325L-133.858 642.584C-136.657 637.971 -139.351 633.194 -141.94 628.27L-141.498 628.037C-144.013 623.253 -146.431 618.329 -148.75 613.279L-149.204 613.488C-151.469 608.558 -153.64 603.509 -155.718 598.354L-155.254 598.168C-157.279 593.144 -159.216 588.02 -161.065 582.807L-161.537 582.974C-163.355 577.849 -165.088 572.64 -166.737 567.357L-166.26 567.208C-167.882 562.013 -169.422 556.746 -170.881 551.42L-171.364 551.552C-172.806 546.288 -174.169 540.966 -175.453 535.596L-174.967 535.48C-176.237 530.174 -177.429 524.821 -178.545 519.432L-179.035 519.533C-180.144 514.177 -181.178 508.785 -182.137 503.368L-181.645 503.281C-182.599 497.891 -183.48 492.475 -184.286 487.045L-184.78 487.118C-185.586 481.691 -186.318 476.249 -186.977 470.802L-186.481 470.742C-187.14 465.292 -187.726 459.837 -188.239 454.387L-188.737 454.434C-189.252 448.957 -189.694 443.486 -190.063 438.03L-189.564 437.996C-189.936 432.5 -190.233 427.019 -190.456 421.564L-190.956 421.584C-191.182 416.066 -191.332 410.575 -191.408 405.121L-190.908 405.114C-190.946 402.369 -190.965 399.634 -190.965 396.91C-190.965 394.285 -190.917 391.649 -190.821 389.004L-191.321 388.986C-191.131 383.732 -190.755 378.443 -190.202 373.128L-189.705 373.18C-189.161 367.96 -188.446 362.715 -187.567 357.454L-188.06 357.371C-187.193 352.182 -186.166 346.977 -184.988 341.767L-184.5 341.877C-183.342 336.756 -182.038 331.63 -180.593 326.505L-181.075 326.369C-179.647 321.303 -178.083 316.239 -176.389 311.186L-175.915 311.345C-174.244 306.356 -172.446 301.377 -170.528 296.417L-170.995 296.236C-169.093 291.317 -167.074 286.415 -164.944 281.538L-164.486 281.738C-162.375 276.906 -160.156 272.098 -157.834 267.323L-158.283 267.105C-155.972 262.351 -153.559 257.63 -151.05 252.948L-150.609 253.184C-148.114 248.526 -145.523 243.907 -142.845 239.334L-143.276 239.081C-140.599 234.51 -137.834 229.986 -134.987 225.515L-134.565 225.784C-131.72 221.316 -128.794 216.902 -125.791 212.548L-126.203 212.264C-123.189 207.894 -120.099 203.585 -116.939 199.344L-116.538 199.643C-113.367 195.386 -110.125 191.198 -106.819 187.086L-107.209 186.773C-103.875 182.627 -100.476 178.557 -97.0181 174.573L-96.6405 174.9C-93.1538 170.883 -89.6071 166.951 -86.0071 163.113L-86.3718 162.771C-82.7239 158.882 -79.0213 155.089 -75.2707 151.4L-74.92 151.757C-71.1194 148.019 -67.2696 144.388 -63.3778 140.872L-63.713 140.501C-59.7416 136.914 -55.7264 133.446 -51.6748 130.107L-51.3568 130.493C-47.2254 127.089 -43.0565 123.818 -38.8581 120.691L-39.1567 120.29C-34.8509 117.084 -30.5138 114.027 -26.1541 111.132L-25.8775 111.548C-21.4087 108.58 -16.9165 105.781 -12.4105 103.163L-12.6617 102.73C-8.01297 100.029 -3.34892 97.5188 1.32027 95.2116L1.54176 95.6598C6.36359 93.2772 11.1901 91.112 16.0099 89.1773L15.8236 88.7133C20.8377 86.7006 25.8455 84.9363 30.8343 83.4352L30.9784 83.914C36.1241 82.3657 41.2483 81.0986 46.3371 80.1288L46.2435 79.6376C51.5385 78.6284 56.7967 77.9396 62.0024 77.5894L62.036 78.0883C64.6804 77.9104 67.3109 77.8203 69.9253 77.8203C72.6497 77.8203 75.3672 77.9687 78.0766 78.2603L78.1301 77.7631C83.5127 78.3425 88.8622 79.4836 94.1694 81.1468L94.0199 81.6239C99.0966 83.2148 104.137 85.2869 109.133 87.8061L109.358 87.3597C114.123 89.7623 118.845 92.5686 123.518 95.7483L123.237 96.1616C127.612 99.139 131.945 102.446 136.23 106.058L136.552 105.676C140.631 109.114 144.665 112.827 148.649 116.793L148.297 117.147C152.084 120.917 155.827 124.917 159.521 129.128L159.897 128.799C163.44 132.837 166.937 137.069 170.385 141.479L169.991 141.787C173.304 146.022 176.571 150.422 179.79 154.972L180.198 154.683C183.315 159.088 186.386 163.634 189.408 168.306L188.988 168.577C191.921 173.111 194.809 177.765 197.647 182.527L198.077 182.271C200.85 186.923 203.577 191.678 206.255 196.524L205.817 196.766C208.439 201.51 211.014 206.343 213.539 211.253L213.984 211.024C216.47 215.858 218.908 220.766 221.296 225.739L220.845 225.956C223.2 230.86 225.506 235.828 227.761 240.849L228.217 240.645C230.451 245.62 232.635 250.648 234.767 255.72L234.306 255.913C236.421 260.946 238.485 266.022 240.495 271.131L240.961 270.948C242.964 276.04 244.914 281.165 246.809 286.314L246.34 286.487C248.231 291.627 250.066 296.79 251.845 301.969L252.318 301.806C254.1 306.997 255.824 312.203 257.489 317.414L257.013 317.566C258.684 322.798 260.295 328.036 261.844 333.27L262.323 333.128C263.885 338.405 265.382 343.68 266.815 348.941L266.332 349.072C267.779 354.387 269.158 359.689 270.469 364.968L270.954 364.847C272.284 370.205 273.543 375.54 274.728 380.842L274.24 380.951C275.446 386.345 276.576 391.705 277.626 397.02L278.117 396.923C279.192 402.362 280.185 407.754 281.093 413.087L280.6 413.171C281.533 418.648 282.375 424.062 283.125 429.402L283.62 429.333C284.396 434.858 285.073 440.304 285.647 445.656L285.15 445.71C285.747 451.273 286.233 456.736 286.605 462.082L287.104 462.047C287.495 467.66 287.76 473.145 287.895 478.485L287.395 478.498C287.464 481.245 287.499 483.953 287.499 486.62Z" stroke="#FFA800" stroke-dasharray="16 16"/>
<path d="M268.322 460.846C268.322 463.577 268.252 466.286 268.114 468.974L268.613 469C268.333 474.465 267.772 479.842 266.946 485.129L266.452 485.052C265.614 490.421 264.501 495.698 263.132 500.881L263.615 501.008C262.227 506.26 260.575 511.416 258.677 516.473L258.208 516.298C256.313 521.349 254.17 526.302 251.797 531.156L252.246 531.376C249.875 536.226 247.276 540.977 244.465 545.627L244.037 545.368C241.257 549.966 238.269 554.465 235.09 558.865L235.495 559.158C232.345 563.518 229.006 567.779 225.497 571.941L225.115 571.618C221.654 575.722 218.027 579.728 214.247 583.636L214.606 583.983C210.864 587.852 206.974 591.623 202.95 595.297L202.613 594.928C198.643 598.552 194.542 602.082 190.324 605.514L190.64 605.902C186.464 609.301 182.175 612.605 177.785 615.812L177.49 615.409C173.144 618.584 168.7 621.666 164.171 624.652L164.446 625.069C159.939 628.041 155.348 630.917 150.687 633.698L150.431 633.268C145.795 636.034 141.088 638.704 136.325 641.279L136.563 641.718C131.801 644.292 126.983 646.769 122.121 649.149L121.901 648.7C117.04 651.08 112.134 653.362 107.198 655.545L107.4 656.003C102.434 658.199 97.4374 660.296 92.4226 662.291L92.2377 661.827C87.1888 663.836 82.1218 665.743 77.0502 667.545L77.2176 668.017C72.0825 669.842 66.9426 671.561 61.812 673.172L61.6622 672.695C56.46 674.329 51.2673 675.852 46.0989 677.262L46.2306 677.744C40.9565 679.184 35.7075 680.507 30.4991 681.711L30.3865 681.224C25.0414 682.46 19.7393 683.571 14.497 684.556L14.5894 685.048C9.17284 686.065 3.81987 686.949 -1.45105 687.695L-1.52118 687.2C-6.9781 687.973 -12.3465 688.6 -17.6057 689.078L-17.5604 689.576C-23.0967 690.08 -28.5127 690.419 -33.7848 690.592L-33.8012 690.092C-36.5271 690.182 -39.2142 690.227 -41.8592 690.227C-44.6341 690.227 -47.3727 690.125 -50.0751 689.925L-50.1121 690.424C-55.6813 690.011 -61.0986 689.182 -66.3651 687.96L-66.2522 687.473C-71.6082 686.231 -76.8078 684.582 -81.8521 682.551L-82.0388 683.015C-87.1127 680.972 -92.0299 678.546 -96.7915 675.763L-96.5392 675.331C-101.208 672.602 -105.727 669.528 -110.099 666.134L-110.406 666.529C-114.674 663.214 -118.801 659.597 -122.786 655.7L-122.437 655.342C-126.281 651.584 -129.995 647.563 -133.579 643.302L-133.962 643.624C-137.432 639.498 -140.78 635.148 -144.007 630.593L-143.599 630.304C-146.715 625.906 -149.717 621.316 -152.608 616.552L-153.036 616.811C-155.835 612.197 -158.529 607.421 -161.118 602.497L-160.675 602.264C-163.191 597.48 -165.608 592.555 -167.928 587.506L-168.382 587.714C-170.646 582.785 -172.817 577.736 -174.895 572.581L-174.432 572.394C-176.457 567.371 -178.394 562.246 -180.243 557.033L-180.714 557.2C-182.532 552.076 -184.266 546.867 -185.915 541.584L-185.438 541.435C-187.059 536.239 -188.6 530.973 -190.059 525.646L-190.541 525.779C-191.983 520.515 -193.347 515.193 -194.631 509.823L-194.145 509.706C-195.414 504.4 -196.607 499.047 -197.723 493.658L-198.213 493.759C-199.322 488.403 -200.356 483.012 -201.315 477.595L-200.823 477.508C-201.777 472.117 -202.657 466.702 -203.464 461.271L-203.958 461.345C-204.764 455.918 -205.496 450.475 -206.155 445.028L-205.659 444.968C-206.318 439.518 -206.904 434.064 -207.417 428.614L-207.915 428.661C-208.43 423.184 -208.872 417.713 -209.241 412.256L-208.742 412.223C-209.113 406.726 -209.411 401.245 -209.634 395.79L-210.134 395.811C-210.36 390.293 -210.51 384.801 -210.586 379.347L-210.086 379.341C-210.124 376.596 -210.143 373.861 -210.143 371.137C-210.143 368.511 -210.094 365.876 -209.999 363.231L-210.498 363.213C-210.309 357.959 -209.933 352.669 -209.38 347.355L-208.882 347.407C-208.339 342.186 -207.624 336.941 -206.744 331.68L-207.238 331.598C-206.37 326.408 -205.344 321.204 -204.166 315.993L-203.678 316.104C-202.52 310.983 -201.215 305.856 -199.771 300.731L-200.252 300.596C-198.824 295.529 -197.26 290.466 -195.567 285.412L-195.093 285.571C-193.421 280.582 -191.623 275.604 -189.706 270.643L-190.172 270.463C-188.271 265.543 -186.252 260.641 -184.122 255.765L-183.664 255.965C-181.553 251.132 -179.334 246.325 -177.011 241.55L-177.461 241.331C-175.149 236.578 -172.736 231.857 -170.228 227.175L-169.787 227.411C-167.291 222.753 -164.701 218.133 -162.022 213.56L-162.454 213.307C-159.777 208.737 -157.012 204.213 -154.164 199.742L-153.743 200.01C-150.898 195.543 -147.971 191.128 -144.969 186.775L-145.38 186.491C-142.367 182.121 -139.277 177.812 -136.117 173.57L-135.716 173.869C-132.545 169.613 -129.303 165.425 -125.997 161.313L-126.386 160.999C-123.053 156.853 -119.654 152.784 -116.196 148.799L-115.818 149.127C-112.332 145.109 -108.785 141.178 -105.185 137.34L-105.549 136.998C-101.902 133.109 -98.199 129.316 -94.4484 125.627L-94.0978 125.983C-90.2972 122.245 -86.4474 118.614 -82.5556 115.099L-82.8907 114.728C-78.9193 111.14 -74.9041 107.673 -70.8526 104.334L-70.5346 104.72C-66.4032 101.315 -62.2342 98.0448 -58.0358 94.918L-58.3344 94.517C-54.0286 91.3101 -49.6915 88.2538 -45.3318 85.3582L-45.0552 85.7747C-40.5864 82.8065 -36.0943 80.0078 -31.5882 77.3893L-31.8394 76.957C-27.1907 74.2556 -22.5267 71.7453 -17.8575 69.4381L-17.636 69.8864C-12.8141 67.5038 -7.98767 65.3386 -3.16785 63.4039L-3.3541 62.9399C1.65997 60.9272 6.66774 59.1629 11.6566 57.6618L11.8007 58.1406C16.9464 56.5923 22.0706 55.3252 27.1593 54.3553L27.0657 53.8642C32.3608 52.855 37.619 52.1662 42.8247 51.816L42.8582 52.3149C45.5027 52.137 48.1331 52.0469 50.7476 52.0469C53.472 52.0469 56.1895 52.1952 58.8988 52.4868L58.9524 51.9897C64.3349 52.5691 69.6844 53.7101 74.9917 55.3733L74.8422 55.8504C79.9189 57.4414 84.9593 59.5135 89.9554 62.0327L90.1805 61.5863C94.9454 63.9889 99.6676 66.7952 104.34 69.9748L104.059 70.3882C108.434 73.3656 112.767 76.6727 117.052 80.2848L117.374 79.9025C121.453 83.3409 125.487 87.0537 129.472 91.0196L129.119 91.374C132.906 95.1438 136.649 99.1436 140.343 103.355L140.719 103.025C144.262 107.064 147.759 111.296 151.207 115.705L150.814 116.013C154.126 120.249 157.393 124.649 160.612 129.198L161.02 128.91C164.137 133.315 167.208 137.86 170.23 142.532L169.81 142.804C172.744 147.338 175.631 151.992 178.47 156.754L178.899 156.497C181.672 161.15 184.399 165.905 187.077 170.751L186.64 170.992C189.261 175.737 191.836 180.569 194.361 185.479L194.806 185.251C197.292 190.084 199.73 194.993 202.118 199.966L201.667 200.182C204.022 205.087 206.328 210.055 208.583 215.076L209.039 214.871C211.273 219.847 213.457 224.875 215.589 229.946L215.128 230.14C217.244 235.173 219.308 240.249 221.318 245.357L221.783 245.174C223.786 250.266 225.737 255.392 227.631 260.541L227.162 260.713C229.053 265.853 230.889 271.017 232.667 276.195L233.14 276.033C234.922 281.224 236.647 286.429 238.312 291.641L237.835 291.793C239.507 297.024 241.118 302.262 242.666 307.497L243.146 307.355C244.707 312.632 246.205 317.906 247.637 323.168L247.154 323.299C248.601 328.613 249.981 333.915 251.291 339.194L251.776 339.074C253.106 344.432 254.365 349.767 255.55 355.069L255.062 355.178C256.268 360.572 257.398 365.932 258.449 371.246L258.939 371.149C260.015 376.588 261.008 381.98 261.916 387.314L261.423 387.398C262.355 392.874 263.198 398.289 263.947 403.629L264.443 403.56C265.218 409.085 265.895 414.53 266.469 419.883L265.972 419.936C266.569 425.5 267.056 430.963 267.428 436.309L267.927 436.274C268.317 441.887 268.582 447.372 268.717 452.711L268.217 452.724C268.287 455.471 268.322 458.179 268.322 460.846Z" stroke="#FFA800" stroke-dasharray="16 16"/>
<path d="M249.142 435.073C249.142 437.804 249.072 440.513 248.934 443.201L249.433 443.227C249.153 448.691 248.592 454.068 247.767 459.356L247.273 459.278C246.434 464.648 245.322 469.924 243.952 475.107L244.435 475.235C243.047 480.487 241.395 485.642 239.497 490.7L239.029 490.524C237.133 495.575 234.99 500.528 232.617 505.382L233.067 505.602C230.696 510.452 228.096 515.203 225.285 519.853L224.857 519.594C222.077 524.192 219.09 528.692 215.91 533.091L216.316 533.384C213.165 537.744 209.827 542.006 206.317 546.167L205.935 545.845C202.475 549.948 198.847 553.954 195.067 557.862L195.426 558.21C191.685 562.078 187.794 565.85 183.771 569.523L183.433 569.154C179.463 572.779 175.362 576.308 171.145 579.741L171.46 580.129C167.284 583.528 162.995 586.831 158.606 590.039L158.311 589.635C153.965 592.811 149.52 595.893 144.991 598.878L145.266 599.296C140.759 602.267 136.168 605.144 131.507 607.924L131.251 607.495C126.615 610.26 121.909 612.931 117.146 615.505L117.383 615.945C112.622 618.518 107.803 620.996 102.941 623.376L102.722 622.926C97.86 625.306 92.9546 627.588 88.0182 629.772L88.2205 630.229C83.2547 632.426 78.2577 634.522 73.2429 636.518L73.058 636.053C68.0092 638.063 62.9421 639.969 57.8705 641.772L58.0379 642.243C52.9028 644.068 47.7629 645.787 42.6323 647.399L42.4825 646.922C37.2803 648.555 32.0876 650.078 26.9192 651.489L27.0509 651.971C21.7768 653.41 16.5278 654.733 11.3194 655.938L11.2068 655.45C5.86166 656.686 0.55957 657.798 -4.68266 658.783L-4.59033 659.274C-10.0069 660.292 -15.3598 661.175 -20.6307 661.922L-20.7009 661.427C-26.1578 662.2 -31.5262 662.827 -36.7854 663.305L-36.7401 663.803C-42.2764 664.306 -47.6924 664.646 -52.9644 664.819L-52.9809 664.319C-55.7068 664.408 -58.3939 664.453 -61.0389 664.453C-63.8138 664.453 -66.5524 664.352 -69.2548 664.152L-69.2917 664.65C-74.861 664.238 -80.2783 663.408 -85.5448 662.187L-85.4319 661.7C-90.7879 660.458 -95.9875 658.808 -101.032 656.777L-101.219 657.241C-106.292 655.199 -111.21 652.772 -115.971 649.989L-115.719 649.557C-120.388 646.829 -124.907 643.755 -129.279 640.36L-129.585 640.755C-133.854 637.441 -137.98 633.824 -141.966 629.927L-141.617 629.569C-145.461 625.81 -149.175 621.79 -152.759 617.528L-153.142 617.85C-156.612 613.724 -159.96 609.374 -163.187 604.819L-162.779 604.53C-165.894 600.133 -168.897 595.543 -171.788 590.778L-172.215 591.037C-175.014 586.424 -177.708 581.647 -180.298 576.723L-179.855 576.49C-182.371 571.706 -184.788 566.782 -187.108 561.732L-187.562 561.941C-189.826 557.011 -191.997 551.962 -194.075 546.808L-193.611 546.621C-195.636 541.597 -197.573 536.473 -199.423 531.26L-199.894 531.427C-201.712 526.303 -203.445 521.093 -205.095 515.81L-204.617 515.661C-206.239 510.466 -207.779 505.2 -209.239 499.873L-209.721 500.005C-211.163 494.741 -212.526 489.419 -213.811 484.049L-213.325 483.933C-214.594 478.627 -215.787 473.274 -216.903 467.885L-217.392 467.986C-218.502 462.63 -219.536 457.238 -220.495 451.821L-220.003 451.734C-220.957 446.344 -221.837 440.929 -222.643 435.498L-223.138 435.572C-223.944 430.144 -224.676 424.702 -225.335 419.255L-224.838 419.195C-225.498 413.745 -226.084 408.29 -226.597 402.84L-227.094 402.887C-227.61 397.411 -228.052 391.939 -228.421 386.483L-227.922 386.449C-228.293 380.953 -228.59 375.472 -228.814 370.017L-229.313 370.037C-229.539 364.519 -229.69 359.028 -229.765 353.574L-229.265 353.567C-229.303 350.823 -229.322 348.088 -229.322 345.363C-229.322 342.738 -229.274 340.102 -229.178 337.457L-229.678 337.439C-229.488 332.185 -229.113 326.896 -228.559 321.581L-228.062 321.633C-227.519 316.413 -226.803 311.168 -225.924 305.907L-226.417 305.825C-225.55 300.635 -224.523 295.43 -223.345 290.22L-222.858 290.33C-221.7 285.21 -220.395 280.083 -218.951 274.958L-219.432 274.822C-218.004 269.756 -216.44 264.692 -214.747 259.639L-214.273 259.798C-212.601 254.809 -210.803 249.83 -208.886 244.87L-209.352 244.69C-207.45 239.77 -205.431 234.868 -203.302 229.991L-202.843 230.191C-200.733 225.359 -198.513 220.552 -196.191 215.776L-196.641 215.558C-194.329 210.804 -191.916 206.083 -189.408 201.401L-188.967 201.637C-186.471 196.979 -183.881 192.36 -181.202 187.787L-181.633 187.534C-178.956 182.964 -176.191 178.439 -173.344 173.968L-172.922 174.237C-170.078 169.769 -167.151 165.355 -164.148 161.001L-164.56 160.717C-161.547 156.347 -158.457 152.038 -155.297 147.797L-154.896 148.096C-151.725 143.839 -148.483 139.651 -145.176 135.539L-145.566 135.226C-142.233 131.08 -138.834 127.011 -135.376 123.026L-134.998 123.354C-131.511 119.336 -127.965 115.404 -124.365 111.566L-124.729 111.224C-121.081 107.335 -117.379 103.542 -113.628 99.8535L-113.277 100.21C-109.477 96.4719 -105.627 92.841 -101.735 89.3254L-102.07 88.9544C-98.099 85.367 -94.0838 81.8995 -90.0322 78.5606L-89.7142 78.9465C-85.5828 75.5418 -81.4139 72.2714 -77.2155 69.1445L-77.5141 68.7435C-73.2083 65.5367 -68.8712 62.4804 -64.5115 59.5847L-64.2349 60.0012C-59.7661 57.0331 -55.274 54.2344 -50.7679 51.6159L-51.0191 51.1835C-46.3704 48.4822 -41.7063 45.9719 -37.0372 43.6647L-36.8157 44.113C-31.9938 41.7303 -27.1674 39.5651 -22.3475 37.6304L-22.5338 37.1664C-17.5197 35.1537 -12.5119 33.3895 -7.52309 31.8883L-7.37901 32.3671C-2.23331 30.8188 2.89088 29.5518 7.97966 28.5819L7.88605 28.0907C13.1811 27.0815 18.4393 26.3927 23.645 26.0426L23.6786 26.5414C26.323 26.3636 28.9535 26.2734 31.5679 26.2734C34.2923 26.2734 37.0098 26.4218 39.7191 26.7134L39.7727 26.2163C45.1552 26.7956 50.5048 27.9367 55.812 29.5999L55.6625 30.077C60.7392 31.6679 65.7796 33.74 70.7757 36.2593L71.0008 35.8128C75.7657 38.2155 80.4879 41.0217 85.1604 44.2014L84.8791 44.6148C89.2544 47.5922 93.5875 50.8992 97.8725 54.5114L98.1948 54.1291C102.274 57.5674 106.308 61.2803 110.292 65.2462L109.939 65.6006C113.726 69.3704 117.469 73.3701 121.164 77.5814L121.539 77.2517C125.082 81.2904 128.58 85.5225 132.028 89.9318L131.634 90.2398C134.946 94.4754 138.214 98.8752 141.432 103.425L141.84 103.136C144.957 107.541 148.028 112.087 151.051 116.759L150.631 117.03C153.564 121.564 156.451 126.218 159.29 130.98L159.719 130.724C162.493 135.376 165.22 140.131 167.898 144.977L167.46 145.219C170.082 149.964 172.656 154.796 175.182 159.706L175.626 159.477C178.112 164.311 180.55 169.219 182.938 174.192L182.487 174.409C184.842 179.313 187.148 184.281 189.403 189.302L189.859 189.098C192.094 194.073 194.278 199.102 196.409 204.173L195.948 204.367C198.064 209.4 200.128 214.475 202.138 219.584L202.603 219.401C204.607 224.493 206.557 229.618 208.451 234.767L207.982 234.94C209.873 240.08 211.709 245.243 213.487 250.422L213.96 250.26C215.742 255.45 217.467 260.656 219.132 265.867L218.656 266.019C220.327 271.251 221.938 276.489 223.486 281.723L223.966 281.581C225.527 286.859 227.025 292.133 228.457 297.394L227.975 297.526C229.421 302.84 230.801 308.142 232.111 313.421L232.597 313.3C233.927 318.658 235.185 323.993 236.371 329.295L235.883 329.404C237.089 334.799 238.218 340.158 239.269 345.473L239.759 345.376C240.835 350.815 241.828 356.207 242.736 361.54L242.243 361.624C243.175 367.101 244.018 372.516 244.768 377.856L245.263 377.786C246.039 383.311 246.715 388.757 247.29 394.109L246.793 394.163C247.39 399.727 247.876 405.189 248.248 410.535L248.747 410.501C249.138 416.114 249.402 421.599 249.537 426.938L249.038 426.951C249.107 429.698 249.142 432.406 249.142 435.073Z" stroke="#FFA800" stroke-dasharray="16 16"/>
<path d="M229.964 409.299C229.964 412.03 229.894 414.74 229.756 417.428L230.256 417.453C229.975 422.918 229.414 428.295 228.589 433.582L228.095 433.505C227.256 438.874 226.144 444.151 224.774 449.334L225.258 449.461C223.869 454.713 222.217 459.869 220.319 464.927L219.851 464.751C217.955 469.802 215.812 474.755 213.44 479.609L213.889 479.829C211.518 484.679 208.919 489.43 206.107 494.08L205.679 493.821C202.9 498.419 199.912 502.918 196.733 507.318L197.138 507.611C193.987 511.971 190.649 516.232 187.139 520.394L186.757 520.071C183.297 524.175 179.669 528.181 175.889 532.089L176.249 532.436C172.507 536.305 168.617 540.076 164.593 543.75L164.256 543.381C160.285 547.006 156.184 550.535 151.967 553.968L152.283 554.355C148.107 557.754 143.817 561.058 139.428 564.265L139.133 563.862C134.787 567.038 130.342 570.119 125.813 573.105L126.088 573.522C121.581 576.494 116.991 579.37 112.329 582.151L112.073 581.721C107.437 584.487 102.731 587.157 97.968 589.732L98.2057 590.171C93.4441 592.745 88.6257 595.222 83.7637 597.602L83.5439 597.153C78.6823 599.533 73.7768 601.815 68.8405 603.998L69.0428 604.456C64.0769 606.652 59.08 608.749 54.0652 610.745L53.8803 610.28C48.8314 612.289 43.7644 614.196 38.6927 615.999L38.8602 616.47C33.7251 618.295 28.5852 620.014 23.4546 621.625L23.3048 621.148C18.1025 622.782 12.9099 624.305 7.74149 625.715L7.87314 626.198C2.59904 627.637 -2.64993 628.96 -7.85829 630.164L-7.97095 629.677C-13.3161 630.913 -18.6182 632.024 -23.8604 633.009L-23.7681 633.501C-29.1846 634.519 -34.5376 635.402 -39.8085 636.148L-39.8786 635.653C-45.3355 636.427 -50.7039 637.053 -55.9631 637.531L-55.9179 638.029C-61.4541 638.533 -66.8701 638.872 -72.1422 639.045L-72.1586 638.546C-74.8846 638.635 -77.5717 638.68 -80.2166 638.68C-82.9916 638.68 -85.7301 638.578 -88.4326 638.378L-88.4695 638.877C-94.0387 638.464 -99.4561 637.635 -104.723 636.414L-104.61 635.927C-109.966 634.684 -115.165 633.035 -120.21 631.004L-120.396 631.468C-125.47 629.425 -130.387 626.999 -135.149 624.216L-134.897 623.784C-139.565 621.055 -144.085 617.981 -148.457 614.587L-148.763 614.982C-153.031 611.668 -157.158 608.05 -161.144 604.153L-160.794 603.796C-164.639 600.037 -168.352 596.016 -171.937 591.755L-172.319 592.077C-175.789 587.951 -179.138 583.601 -182.365 579.046L-181.957 578.757C-185.072 574.359 -188.075 569.77 -190.966 565.005L-191.393 565.264C-194.192 560.65 -196.886 555.874 -199.475 550.95L-199.033 550.717C-201.549 545.933 -203.966 541.009 -206.285 535.959L-206.74 536.167C-209.004 531.238 -211.175 526.189 -213.253 521.034L-212.789 520.847C-214.814 515.824 -216.751 510.699 -218.601 505.486L-219.072 505.654C-220.89 500.529 -222.623 495.32 -224.272 490.037L-223.795 489.888C-225.417 484.693 -226.957 479.426 -228.416 474.1L-228.899 474.232C-230.341 468.968 -231.704 463.646 -232.989 458.276L-232.502 458.16C-233.772 452.853 -234.964 447.5 -236.08 442.111L-236.57 442.213C-237.68 436.857 -238.714 431.465 -239.673 426.048L-239.18 425.961C-240.135 420.571 -241.015 415.155 -241.821 409.725L-242.316 409.798C-243.121 404.371 -243.854 398.929 -244.513 393.481L-244.016 393.421C-244.675 387.971 -245.261 382.517 -245.774 377.067L-246.272 377.114C-246.788 371.637 -247.229 366.166 -247.598 360.71L-247.099 360.676C-247.471 355.179 -247.768 349.698 -247.992 344.243L-248.491 344.264C-248.717 338.746 -248.868 333.254 -248.943 327.801L-248.443 327.794C-248.481 325.049 -248.5 322.314 -248.5 319.59C-248.5 316.964 -248.452 314.329 -248.356 311.684L-248.856 311.666C-248.666 306.412 -248.291 301.123 -247.737 295.808L-247.24 295.86C-246.696 290.64 -245.981 285.394 -245.102 280.134L-245.595 280.051C-244.728 274.861 -243.701 269.657 -242.523 264.447L-242.035 264.557C-240.877 259.436 -239.573 254.309 -238.128 249.185L-238.61 249.049C-237.182 243.983 -235.618 238.919 -233.924 233.865L-233.45 234.024C-231.779 229.036 -229.981 224.057 -228.063 219.096L-228.53 218.916C-226.628 213.996 -224.609 209.094 -222.479 204.218L-222.021 204.418C-219.911 199.586 -217.691 194.778 -215.369 190.003L-215.818 189.784C-213.507 185.031 -211.094 180.31 -208.585 175.628L-208.145 175.864C-205.649 171.206 -203.058 166.586 -200.38 162.013L-200.811 161.761C-198.134 157.19 -195.369 152.666 -192.522 148.195L-192.1 148.463C-189.255 143.996 -186.329 139.582 -183.326 135.228L-183.738 134.944C-180.724 130.574 -177.634 126.265 -174.475 122.024L-174.074 122.322C-170.902 118.066 -167.66 113.878 -164.354 109.766L-164.744 109.452C-161.41 105.306 -158.011 101.237 -154.553 97.2525L-154.176 97.5802C-150.689 93.5624 -147.142 89.6307 -143.542 85.7928L-143.907 85.4507C-140.259 81.5618 -136.556 77.7689 -132.806 74.08L-132.455 74.4365C-128.655 70.6985 -124.805 67.0675 -120.913 63.552L-121.248 63.181C-117.277 59.5936 -113.262 56.126 -109.21 52.7872L-108.892 53.173C-104.761 49.7684 -100.592 46.4979 -96.3932 43.3711L-96.6919 42.9701C-92.386 39.7632 -88.049 36.7069 -83.6893 33.8113L-83.4126 34.2278C-78.9438 31.2596 -74.4517 28.4609 -69.9456 25.8424L-70.1968 25.4101C-65.5481 22.7087 -60.8841 20.1985 -56.2149 17.8913L-55.9934 18.3395C-51.1716 15.9569 -46.3451 13.7917 -41.5253 11.857L-41.7115 11.393C-36.6974 9.38029 -31.6897 7.61602 -26.7008 6.11491L-26.5567 6.5937C-21.411 5.0454 -16.2868 3.77831 -11.1981 2.80844L-11.2917 2.31728C-5.99664 1.3081 -0.738464 0.619308 4.46727 0.269132L4.50082 0.768005C7.14526 0.59012 9.77573 0.5 12.3902 0.5C15.1146 0.5 17.832 0.648338 20.5414 0.93996L20.5949 0.442831C25.9775 1.02218 31.327 2.16327 36.6343 3.82645L36.4847 4.30357C41.5614 5.89449 46.6019 7.9666 51.598 10.4858L51.8231 10.0394C56.588 12.442 61.3102 15.2483 65.9827 18.428L65.7014 18.8413C70.0766 21.8187 74.4097 25.1258 78.6948 28.7379L79.0171 28.3556C83.0959 31.794 87.13 35.5068 91.1142 39.4728L90.7615 39.8271C94.5487 43.5969 98.2917 47.5967 101.986 51.808L102.362 51.4783C105.904 55.5169 109.402 59.749 112.85 64.1584L112.456 64.4664C115.768 68.7019 119.036 73.1018 122.255 77.6514L122.663 77.3627C125.779 81.7681 128.851 86.3133 131.873 90.9853L131.453 91.2568C134.386 95.791 137.273 100.445 140.112 105.207L140.542 104.951C143.315 109.603 146.042 114.358 148.72 119.204L148.282 119.446C150.904 124.19 153.479 129.023 156.004 133.932L156.448 133.704C158.935 138.537 161.373 143.446 163.76 148.419L163.31 148.635C165.665 153.54 167.971 158.508 170.225 163.529L170.681 163.324C172.916 168.3 175.1 173.328 177.232 178.399L176.771 178.593C178.886 183.626 180.95 188.702 182.96 193.811L183.426 193.627C185.429 198.72 187.379 203.845 189.274 208.994L188.804 209.167C190.695 214.306 192.531 219.47 194.309 224.649L194.782 224.486C196.565 229.677 198.289 234.882 199.954 240.094L199.478 240.246C201.149 245.478 202.76 250.715 204.309 255.95L204.788 255.808C206.349 261.085 207.847 266.359 209.279 271.621L208.797 271.752C210.244 277.067 211.623 282.368 212.934 287.647L213.419 287.527C214.749 292.885 216.008 298.22 217.193 303.522L216.705 303.631C217.911 309.025 219.04 314.385 220.091 319.699L220.582 319.602C221.657 325.042 222.65 330.434 223.558 335.767L223.065 335.851C223.998 341.327 224.84 346.742 225.59 352.082L226.085 352.013C226.861 357.538 227.538 362.983 228.112 368.336L227.615 368.389C228.212 373.953 228.698 379.416 229.07 384.762L229.569 384.727C229.96 390.34 230.225 395.825 230.36 401.165L229.86 401.177C229.929 403.924 229.964 406.632 229.964 409.299Z" stroke="#FFA800" stroke-dasharray="16 16"/>
</g>
</svg>
