<svg width="615" height="1292" viewBox="0 0 615 1292" fill="none" xmlns="http://www.w3.org/2000/svg">
<path d="M1020.99 779.604C1020.99 782.266 1020.91 784.909 1020.75 787.531L1021.25 787.562C1020.93 792.879 1020.29 798.115 1019.35 803.271L1018.85 803.181C1017.9 808.37 1016.64 813.476 1015.09 818.499L1015.57 818.646C1014.01 823.68 1012.17 828.63 1010.05 833.494L1009.59 833.294C1007.5 838.082 1005.14 842.788 1002.54 847.411L1002.97 847.656C1000.4 852.209 997.592 856.68 994.555 861.068L994.143 860.784C991.181 865.064 988.001 869.266 984.619 873.388L985.005 873.705C981.696 877.739 978.193 881.697 974.511 885.576L974.148 885.232C970.563 889.01 966.808 892.714 962.894 896.344L963.234 896.71C959.405 900.261 955.425 903.741 951.307 907.148L950.988 906.763C946.968 910.089 942.815 913.346 938.54 916.534L938.839 916.934C934.645 920.061 930.334 923.121 925.916 926.113L925.636 925.699C921.306 928.632 916.873 931.5 912.347 934.302L912.61 934.727C908.152 937.487 903.604 940.183 898.976 942.814L898.729 942.379C894.17 944.97 889.533 947.499 884.827 949.964L885.059 950.407C880.403 952.845 875.68 955.221 870.897 957.535L870.679 957.085C865.947 959.374 861.157 961.601 856.317 963.767L856.521 964.223C851.713 966.375 846.856 968.464 841.959 970.493L841.767 970.031C836.9 972.046 831.992 974 827.052 975.893L827.231 976.36C822.303 978.248 817.343 980.074 812.359 981.839L812.192 981.368C807.216 983.129 802.215 984.829 797.198 986.467L797.353 986.942C792.324 988.584 787.278 990.162 782.224 991.678L782.081 991.199C777.01 992.72 771.931 994.176 766.852 995.569L766.984 996.051C761.868 997.453 756.752 998.79 751.644 1000.06L751.523 999.576C746.373 1000.86 741.23 1002.07 736.104 1003.22L736.214 1003.71C731.023 1004.87 725.85 1005.96 720.702 1006.98L720.604 1006.49C715.383 1007.53 710.189 1008.49 705.03 1009.39L705.115 1009.88C699.857 1010.79 694.636 1011.62 689.461 1012.38L689.389 1011.88C684.103 1012.66 678.866 1013.35 673.687 1013.96L673.746 1014.46C668.424 1015.09 663.163 1015.64 657.976 1016.1L657.932 1015.6C652.584 1016.07 647.313 1016.46 642.133 1016.75L642.161 1017.25C636.777 1017.55 631.49 1017.75 626.314 1017.86L626.305 1017.36C623.661 1017.41 621.046 1017.44 618.462 1017.44C615.811 1017.44 613.186 1017.38 610.586 1017.27L610.564 1017.76C605.255 1017.53 600.051 1017.07 594.952 1016.39L595.019 1015.89C589.786 1015.19 584.664 1014.25 579.652 1013.09L579.539 1013.58C574.392 1012.39 569.36 1010.97 564.443 1009.32L564.602 1008.84C559.626 1007.17 554.769 1005.28 550.028 1003.16L549.824 1003.62C545.036 1001.48 540.368 999.127 535.818 996.562L536.063 996.127C531.524 993.568 527.102 990.802 522.797 987.84L522.513 988.252C518.219 985.297 514.041 982.148 509.979 978.818L510.296 978.432C506.284 975.143 502.386 971.677 498.6 968.045L498.254 968.406C494.505 964.809 490.866 961.05 487.338 957.141L487.709 956.806C484.236 952.959 480.869 948.966 477.608 944.837L477.216 945.147C473.996 941.071 470.879 936.863 467.865 932.535L468.275 932.249C465.313 927.996 462.45 923.626 459.686 919.149L459.26 919.412C456.533 914.995 453.901 910.474 451.365 905.86L451.803 905.619C449.305 901.073 446.899 896.436 444.585 891.717L444.136 891.937C441.847 887.268 439.648 882.519 437.538 877.699L437.996 877.499C435.913 872.737 433.917 867.906 432.007 863.014L431.542 863.196C429.648 858.344 427.84 853.432 426.117 848.468L426.59 848.304C424.882 843.385 423.258 838.415 421.718 833.403L421.24 833.55C419.707 828.562 418.256 823.533 416.888 818.47L417.371 818.339C416.009 813.303 414.729 808.233 413.53 803.139L413.043 803.253C411.846 798.165 410.729 793.052 409.692 787.922L410.182 787.823C409.146 782.699 408.191 777.559 407.315 772.41L406.822 772.494C405.944 767.33 405.145 762.157 404.426 756.984L404.921 756.915C404.2 751.726 403.559 746.536 402.998 741.353L402.501 741.407C401.935 736.187 401.451 730.975 401.046 725.778L401.544 725.739C401.137 720.503 400.811 715.283 400.566 710.087L400.066 710.111C399.818 704.854 399.653 699.621 399.57 694.422L400.07 694.414C400.029 691.799 400.008 689.193 400.008 686.597C400.008 683.956 400.067 681.305 400.184 678.645L399.684 678.623C399.916 673.34 400.375 668.023 401.051 662.682L401.547 662.744C402.209 657.515 403.079 652.261 404.15 646.991L403.66 646.891C404.711 641.714 405.955 636.522 407.382 631.323L407.864 631.456C409.259 626.371 410.831 621.279 412.57 616.188L412.097 616.026C413.805 611.025 415.675 606.025 417.699 601.033L418.162 601.221C420.145 596.329 422.277 591.445 424.548 586.575L424.095 586.364C426.332 581.569 428.705 576.789 431.207 572.029L431.649 572.262C434.109 567.582 436.695 562.923 439.398 558.289L438.966 558.037C441.637 553.46 444.422 548.91 447.317 544.39L447.738 544.66C450.595 540.2 453.558 535.77 456.621 531.377L456.211 531.091C459.247 526.737 462.382 522.418 465.608 518.142L466.007 518.443C469.204 514.206 472.491 510.01 475.863 505.86L475.475 505.545C478.829 501.417 482.267 497.335 485.782 493.304L486.159 493.632C489.655 489.625 493.228 485.667 496.872 481.766L496.507 481.424C500.144 477.53 503.853 473.692 507.627 469.914L507.981 470.267C511.746 466.498 515.578 462.789 519.468 459.146L519.127 458.781C523.023 455.133 526.98 451.55 530.991 448.038L531.321 448.415C535.336 444.899 539.406 441.455 543.525 438.087L543.209 437.7C547.348 434.315 551.537 431.008 555.77 427.783L556.073 428.181C560.325 424.941 564.621 421.785 568.955 418.717L568.666 418.309C573.038 415.215 577.449 412.211 581.892 409.302L582.166 409.721C586.646 406.789 591.16 403.954 595.701 401.222L595.443 400.794C600.04 398.028 604.666 395.368 609.313 392.819L609.554 393.257C614.256 390.678 618.981 388.213 623.722 385.868L623.5 385.42C628.318 383.037 633.153 380.778 637.997 378.648L638.199 379.106C643.117 376.944 648.046 374.917 652.977 373.031L652.798 372.564C657.829 370.64 662.862 368.862 667.891 367.239L668.045 367.714C673.166 366.061 678.281 364.567 683.383 363.241L683.257 362.757C688.477 361.4 693.684 360.217 698.868 359.217L698.963 359.708C704.248 358.689 709.51 357.859 714.739 357.229L714.679 356.732C720.032 356.087 725.351 355.649 730.627 355.427L730.648 355.927C733.309 355.815 735.959 355.759 738.597 355.759C741.272 355.759 743.943 355.847 746.607 356.02L746.64 355.521C751.977 355.869 757.291 356.559 762.576 357.573L762.481 358.064C767.689 359.063 772.869 360.379 778.016 361.993L778.165 361.516C783.228 363.103 788.257 364.978 793.25 367.124L793.052 367.584C797.897 369.666 802.708 372.006 807.48 374.586L807.717 374.146C812.364 376.659 816.972 379.399 821.539 382.353L821.268 382.773C825.694 385.636 830.082 388.701 834.428 391.955L834.727 391.555C838.961 394.725 843.154 398.073 847.302 401.588L846.979 401.969C851.012 405.386 855.003 408.961 858.95 412.684L859.293 412.32C863.15 415.958 866.965 419.736 870.733 423.644L870.373 423.991C874.048 427.802 877.679 431.736 881.263 435.786L881.638 435.454C885.156 439.428 888.629 443.511 892.054 447.695L891.667 448.012C895.03 452.119 898.347 456.325 901.616 460.619L902.014 460.316C905.239 464.551 908.416 468.873 911.544 473.273L911.137 473.563C914.223 477.903 917.261 482.32 920.249 486.805L920.665 486.528C923.624 490.971 926.534 495.481 929.393 500.05L928.969 500.316C931.802 504.843 934.583 509.428 937.312 514.065L937.743 513.811C940.457 518.421 943.118 523.082 945.725 527.786L945.288 528.028C947.88 532.705 950.419 537.424 952.901 542.179L953.345 541.948C955.825 546.698 958.25 551.484 960.617 556.299L960.169 556.519C962.535 561.331 964.843 566.171 967.092 571.033L967.546 570.823C969.801 575.698 971.996 580.595 974.129 585.506L973.67 585.705C975.81 590.632 977.888 595.573 979.901 600.522L980.364 600.333C982.39 605.316 984.352 610.306 986.245 615.295L985.778 615.472C987.689 620.51 989.532 625.547 991.304 630.576L991.775 630.41C993.57 635.504 995.291 640.59 996.937 645.661L996.462 645.815C998.13 650.955 999.721 656.078 1001.23 661.177L1001.71 661.035C1003.25 666.227 1004.71 671.394 1006.08 676.526L1005.6 676.655C1006.99 681.891 1008.3 687.09 1009.52 692.245L1010.01 692.13C1011.26 697.418 1012.41 702.659 1013.47 707.842L1012.98 707.942C1014.06 713.273 1015.04 718.543 1015.91 723.742L1016.4 723.66C1017.31 729.045 1018.09 734.355 1018.76 739.576L1018.27 739.639C1018.96 745.067 1019.53 750.399 1019.96 755.622L1020.46 755.58C1020.91 761.062 1021.22 766.424 1021.37 771.65L1020.87 771.665C1020.95 774.348 1020.99 776.995 1020.99 779.604Z" stroke="#F06500" stroke-dasharray="16 16"/>
<path d="M1050.06 787.763C1050.06 790.493 1049.98 793.205 1049.83 795.898L1050.33 795.926C1050.01 801.379 1049.39 806.754 1048.48 812.05L1047.98 811.965C1047.06 817.298 1045.84 822.551 1044.33 827.724L1044.81 827.864C1043.3 833.054 1041.5 838.162 1039.43 843.188L1038.97 842.998C1036.92 847.963 1034.62 852.848 1032.06 857.652L1032.5 857.887C1029.98 862.629 1027.21 867.292 1024.22 871.874L1023.8 871.6C1020.87 876.076 1017.73 880.475 1014.38 884.796L1014.78 885.103C1011.5 889.336 1008.03 893.494 1004.37 897.576L1004 897.243C1000.43 901.223 996.691 905.131 992.788 908.967L993.139 909.323C989.318 913.079 985.341 916.764 981.221 920.378L980.891 920.003C976.869 923.531 972.708 926.993 968.42 930.386L968.731 930.778C964.527 934.104 960.202 937.364 955.764 940.558L955.472 940.152C951.123 943.282 946.666 946.348 942.11 949.349L942.385 949.767C937.9 952.722 933.319 955.614 928.651 958.443L928.392 958.016C923.798 960.8 919.119 963.523 914.365 966.184L914.609 966.621C909.91 969.25 905.137 971.82 900.298 974.329L900.068 973.885C895.286 976.364 890.44 978.783 885.536 981.142L885.753 981.593C880.889 983.933 875.969 986.213 871.001 988.434L870.797 987.978C865.869 990.181 860.893 992.325 855.877 994.41L856.069 994.872C851.077 996.947 846.046 998.962 840.982 1000.92L840.802 1000.45C835.759 1002.4 830.684 1004.29 825.584 1006.12L825.753 1006.59C820.654 1008.42 815.53 1010.19 810.388 1011.9L810.23 1011.43C805.088 1013.14 799.927 1014.79 794.756 1016.38L794.903 1016.85C789.714 1018.45 784.514 1019.98 779.311 1021.46L779.175 1020.97C773.951 1022.45 768.723 1023.87 763.5 1025.22L763.626 1025.71C758.363 1027.07 753.104 1028.37 747.857 1029.61L747.743 1029.12C742.444 1030.37 737.157 1031.55 731.89 1032.67L731.994 1033.16C726.654 1034.29 721.335 1035.36 716.043 1036.35L715.951 1035.86C710.583 1036.87 705.245 1037.81 699.944 1038.68L700.025 1039.17C694.623 1040.06 689.26 1040.87 683.945 1041.61L683.876 1041.11C678.449 1041.87 673.073 1042.54 667.755 1043.14L667.811 1043.63C662.351 1044.25 656.954 1044.78 651.63 1045.22L651.589 1044.72C646.106 1045.18 640.7 1045.55 635.384 1045.84L635.41 1046.34C629.895 1046.63 624.475 1046.82 619.163 1046.92L619.153 1046.42C616.446 1046.47 613.766 1046.5 611.116 1046.5C608.422 1046.5 605.752 1046.45 603.106 1046.34L603.086 1046.84C597.695 1046.62 592.402 1046.19 587.209 1045.54L587.27 1045.04C581.945 1044.38 576.724 1043.5 571.607 1042.4L571.502 1042.89C566.257 1041.77 561.12 1040.43 556.091 1038.87L556.239 1038.39C551.145 1036.82 546.162 1035.03 541.289 1033.03L541.099 1033.49C536.164 1031.46 531.342 1029.23 526.632 1026.79L526.862 1026.35C522.153 1023.91 517.556 1021.27 513.071 1018.44L512.804 1018.86C508.319 1016.04 503.945 1013.02 499.683 1009.82L499.983 1009.42C495.758 1006.25 491.643 1002.91 487.637 999.399L487.307 999.775C483.33 996.292 479.46 992.646 475.696 988.849L476.051 988.497C472.339 984.752 468.731 980.859 465.226 976.829L464.849 977.157C461.383 973.171 458.017 969.052 454.752 964.807L455.148 964.502C451.937 960.328 448.823 956.033 445.805 951.627L445.393 951.909C442.411 947.555 439.523 943.093 436.729 938.531L437.155 938.27C434.402 933.775 431.74 929.183 429.168 924.502L428.729 924.742C426.186 920.113 423.73 915.397 421.363 910.604L421.811 910.382C419.474 905.649 417.222 900.84 415.055 895.962L414.599 896.165C412.452 891.331 410.388 886.43 408.408 881.47L408.873 881.285C406.913 876.375 405.034 871.406 403.237 866.387L402.767 866.556C400.981 861.569 399.276 856.532 397.65 851.452L398.126 851.3C396.512 846.256 394.977 841.171 393.52 836.05L393.039 836.187C391.587 831.084 390.213 825.947 388.916 820.782L389.401 820.66C388.109 815.515 386.894 810.343 385.755 805.151L385.267 805.258C384.128 800.067 383.066 794.856 382.081 789.632L382.572 789.539C381.586 784.317 380.677 779.082 379.843 773.842L379.349 773.92C378.512 768.663 377.752 763.399 377.067 758.137L377.563 758.072C376.876 752.793 376.265 747.514 375.73 742.244L375.232 742.295C374.694 736.988 374.232 731.69 373.846 726.407L374.345 726.371C373.956 721.05 373.646 715.746 373.412 710.465L372.913 710.487C372.676 705.146 372.519 699.83 372.44 694.546L372.94 694.538C372.901 691.883 372.881 689.236 372.881 686.597C372.881 683.889 372.938 681.172 373.051 678.446L372.552 678.425C372.776 673.008 373.222 667.558 373.878 662.082L374.375 662.142C375.019 656.775 375.866 651.384 376.909 645.976L376.418 645.881C377.443 640.564 378.657 635.23 380.051 629.889L380.535 630.015C381.9 624.784 383.438 619.546 385.142 614.306L384.667 614.151C386.342 608.999 388.178 603.846 390.166 598.7L390.632 598.88C392.582 593.831 394.679 588.789 396.917 583.757L396.46 583.554C398.665 578.598 401.005 573.654 403.475 568.727L403.922 568.951C406.351 564.105 408.906 559.276 411.58 554.47L411.144 554.227C413.785 549.479 416.543 544.754 419.411 540.056L419.838 540.317C422.668 535.681 425.606 531.073 428.646 526.497L428.23 526.22C431.241 521.687 434.352 517.185 437.558 512.72L437.964 513.012C441.137 508.592 444.403 504.209 447.756 499.866L447.36 499.561C450.691 495.247 454.108 490.974 457.605 486.746L457.991 487.065C461.462 482.869 465.013 478.718 468.638 474.617L468.263 474.286C471.877 470.197 475.565 466.158 479.321 462.173L479.685 462.516C483.428 458.545 487.239 454.628 491.113 450.77L490.76 450.416C494.634 446.558 498.571 442.759 502.565 439.023L502.907 439.388C506.899 435.655 510.949 431.985 515.052 428.383L514.722 428.007C518.836 424.395 523.003 420.851 527.218 417.38L527.536 417.766C531.76 414.288 536.033 410.883 540.349 407.556L540.043 407.16C544.384 403.814 548.768 400.547 553.191 397.363L553.483 397.769C557.934 394.565 562.424 391.447 566.947 388.418L566.669 388.003C571.234 384.946 575.833 381.981 580.461 379.113L580.725 379.538C585.393 376.644 590.09 373.849 594.811 371.158L594.564 370.723C599.344 367.998 604.148 365.379 608.97 362.872L609.201 363.316C614.08 360.779 618.978 358.356 623.889 356.054L623.676 355.601C628.665 353.262 633.667 351.046 638.676 348.96L638.868 349.421C643.951 347.304 649.04 345.321 654.13 343.477L653.96 343.007C659.147 341.128 664.335 339.394 669.516 337.811L669.662 338.289C674.933 336.679 680.197 335.226 685.446 333.936L685.327 333.451C690.69 332.133 696.039 330.986 701.365 330.017L701.454 330.509C706.877 329.522 712.277 328.72 717.644 328.111L717.587 327.614C723.073 326.992 728.526 326.57 733.937 326.356L733.957 326.856C736.684 326.749 739.4 326.694 742.104 326.694C744.711 326.694 747.313 326.771 749.911 326.922L749.94 326.422C755.144 326.725 760.327 327.325 765.485 328.21L765.401 328.703C770.497 329.577 775.57 330.729 780.616 332.147L780.751 331.665C785.73 333.064 790.682 334.719 795.602 336.618L795.422 337.085C800.223 338.938 804.995 341.024 809.735 343.331L809.953 342.882C814.59 345.139 819.194 347.606 823.762 350.272L823.51 350.704C827.953 353.297 832.363 356.079 836.736 359.039L837.017 358.625C841.289 361.516 845.526 364.577 849.725 367.798L849.421 368.194C853.511 371.332 857.566 374.621 861.583 378.053L861.908 377.673C865.839 381.032 869.734 384.528 873.589 388.152L873.246 388.516C877.004 392.049 880.725 395.704 884.407 399.473L884.764 399.123C888.373 402.818 891.944 406.622 895.474 410.528L895.103 410.863C898.569 414.698 901.996 418.631 905.382 422.656L905.765 422.334C909.103 426.301 912.401 430.357 915.657 434.495L915.264 434.804C918.473 438.882 921.642 443.039 924.768 447.27L925.17 446.973C928.256 451.149 931.301 455.397 934.302 459.709L933.891 459.995C936.854 464.252 939.775 468.573 942.652 472.951L943.07 472.676C945.926 477.023 948.739 481.427 951.507 485.881L951.083 486.145C953.83 490.566 956.534 495.037 959.191 499.553L959.622 499.299C962.265 503.791 964.863 508.327 967.414 512.9L966.977 513.144C969.514 517.693 972.004 522.28 974.446 526.899L974.888 526.665C977.328 531.28 979.72 535.927 982.061 540.601L981.614 540.825C983.953 545.493 986.242 550.187 988.48 554.902L988.931 554.687C991.172 559.409 993.362 564.152 995.498 568.91L995.042 569.115C997.184 573.888 999.274 578.677 1001.31 583.476L1001.77 583.281C1003.81 588.105 1005.8 592.939 1007.73 597.778L1007.27 597.963C1009.21 602.827 1011.1 607.695 1012.92 612.562L1013.39 612.386C1015.23 617.294 1017.01 622.201 1018.72 627.1L1018.25 627.266C1019.99 632.228 1021.67 637.182 1023.28 642.123L1023.75 641.968C1025.38 646.974 1026.94 651.965 1028.44 656.936L1027.96 657.08C1029.47 662.12 1030.91 667.138 1032.28 672.128L1032.76 671.995C1034.15 677.074 1035.47 682.123 1036.71 687.137L1036.22 687.257C1037.49 692.373 1038.67 697.451 1039.77 702.484L1040.26 702.377C1041.39 707.557 1042.43 712.689 1043.38 717.765L1042.89 717.857C1043.87 723.07 1044.75 728.223 1045.53 733.308L1046.03 733.232C1046.84 738.487 1047.54 743.671 1048.14 748.772L1047.64 748.83C1048.26 754.116 1048.76 759.314 1049.14 764.413L1049.64 764.375C1050.04 769.704 1050.32 774.926 1050.45 780.027L1049.95 780.04C1050.02 782.647 1050.06 785.221 1050.06 787.763Z" stroke="#F06500" stroke-dasharray="16 16"/>
<path d="M1022.93 758.698C1022.93 761.428 1022.85 764.14 1022.7 766.832L1023.2 766.861C1022.89 772.313 1022.27 777.688 1021.35 782.985L1020.86 782.899C1019.93 788.232 1018.71 793.486 1017.2 798.659L1017.68 798.799C1016.17 803.988 1014.37 809.097 1012.3 814.123L1011.84 813.933C1009.8 818.898 1007.49 823.783 1004.93 828.586L1005.37 828.821C1002.85 833.564 1000.08 838.226 997.09 842.808L996.671 842.535C993.747 847.01 990.604 851.41 987.256 855.731L987.652 856.037C984.373 860.27 980.899 864.428 977.242 868.511L976.869 868.177C973.304 872.157 969.564 876.066 965.661 879.901L966.012 880.258C962.191 884.013 958.215 887.699 954.094 891.313L953.765 890.937C949.742 894.466 945.581 897.927 941.293 901.32L941.604 901.712C937.4 905.038 933.075 908.299 928.637 911.492L928.345 911.087C923.996 914.216 919.539 917.282 914.983 920.284L915.258 920.702C910.773 923.656 906.192 926.549 901.524 929.378L901.265 928.95C896.671 931.734 891.992 934.458 887.238 937.119L887.482 937.555C882.783 940.185 878.01 942.755 873.172 945.263L872.941 944.819C868.159 947.298 863.313 949.717 858.409 952.077L858.626 952.527C853.762 954.867 848.842 957.148 843.874 959.369L843.67 958.912C838.742 961.116 833.766 963.26 828.75 965.345L828.942 965.806C823.95 967.881 818.919 969.897 813.855 971.853L813.675 971.387C808.632 973.335 803.557 975.225 798.457 977.054L798.626 977.525C793.527 979.354 788.403 981.125 783.261 982.835L783.103 982.36C777.961 984.07 772.8 985.721 767.629 987.31L767.776 987.788C762.587 989.384 757.387 990.918 752.184 992.39L752.048 991.909C746.824 993.388 741.597 994.804 736.373 996.158L736.499 996.642C731.236 998.006 725.977 999.307 720.73 1000.54L720.616 1000.06C715.317 1001.3 710.03 1002.49 704.763 1003.6L704.867 1004.09C699.527 1005.23 694.208 1006.29 688.917 1007.29L688.824 1006.8C683.456 1007.81 678.118 1008.75 672.817 1009.61L672.898 1010.11C667.496 1010.99 662.133 1011.81 656.818 1012.54L656.749 1012.05C651.322 1012.8 645.946 1013.47 640.628 1014.07L640.684 1014.57C635.225 1015.18 629.827 1015.71 624.503 1016.16L624.462 1015.66C618.979 1016.12 613.573 1016.49 608.257 1016.77L608.283 1017.27C602.768 1017.56 597.348 1017.76 592.036 1017.86L592.026 1017.36C589.319 1017.41 586.639 1017.43 583.989 1017.43C581.295 1017.43 578.625 1017.38 575.979 1017.27L575.959 1017.77C570.568 1017.56 565.275 1017.12 560.082 1016.48L560.143 1015.98C554.818 1015.32 549.597 1014.43 544.48 1013.34L544.375 1013.83C539.13 1012.71 533.993 1011.36 528.964 1009.81L529.112 1009.33C524.018 1007.75 519.035 1005.96 514.162 1003.96L513.972 1004.42C509.037 1002.4 504.215 1000.16 499.505 997.724L499.735 997.28C495.026 994.843 490.429 992.204 485.944 989.376L485.677 989.799C481.192 986.97 476.818 983.952 472.556 980.755L472.856 980.355C468.631 977.187 464.516 973.843 460.51 970.333L460.18 970.709C456.203 967.226 452.333 963.58 448.569 959.783L448.924 959.431C445.213 955.687 441.604 951.794 438.099 947.763L437.722 948.091C434.256 944.106 430.89 939.986 427.625 935.742L428.021 935.437C424.81 931.263 421.696 926.968 418.678 922.561L418.266 922.844C415.284 918.49 412.396 914.028 409.602 909.466L410.028 909.204C407.275 904.709 404.613 900.117 402.041 895.436L401.603 895.677C399.059 891.048 396.603 886.332 394.236 881.538L394.684 881.317C392.347 876.584 390.095 871.775 387.929 866.897L387.472 867.1C385.325 862.266 383.261 857.365 381.281 852.405L381.746 852.22C379.786 847.309 377.907 842.341 376.11 837.322L375.64 837.49C373.854 832.503 372.149 827.466 370.523 822.387L370.999 822.235C369.385 817.191 367.85 812.105 366.393 806.985L365.912 807.121C364.46 802.019 363.086 796.881 361.789 791.717L362.274 791.595C360.982 786.45 359.767 781.278 358.628 776.085L358.14 776.192C357.001 771.001 355.94 765.79 354.954 760.566L355.445 760.474C354.459 755.252 353.55 750.017 352.716 744.776L352.222 744.855C351.386 739.597 350.625 734.334 349.94 729.071L350.436 729.007C349.749 723.727 349.138 718.449 348.603 713.179L348.105 713.229C347.567 707.923 347.105 702.624 346.719 697.342L347.218 697.306C346.829 691.985 346.519 686.68 346.285 681.399L345.786 681.421C345.549 676.081 345.392 670.765 345.313 665.48L345.813 665.473C345.774 662.818 345.754 660.17 345.754 657.532C345.754 654.824 345.811 652.107 345.924 649.381L345.425 649.36C345.649 643.943 346.095 638.492 346.751 633.017L347.248 633.076C347.892 627.71 348.739 622.319 349.782 616.91L349.291 616.816C350.316 611.498 351.53 606.165 352.924 600.823L353.408 600.949C354.773 595.719 356.311 590.48 358.015 585.24L357.54 585.086C359.215 579.934 361.051 574.781 363.039 569.634L363.505 569.814C365.455 564.766 367.552 559.723 369.79 554.692L369.333 554.489C371.538 549.533 373.878 544.589 376.348 539.662L376.795 539.886C379.224 535.04 381.779 530.211 384.453 525.404L384.017 525.161C386.658 520.414 389.416 515.688 392.284 510.991L392.711 511.251C395.541 506.616 398.479 502.007 401.519 497.431L401.103 497.155C404.114 492.621 407.225 488.12 410.431 483.655L410.837 483.947C414.01 479.527 417.276 475.143 420.629 470.801L420.233 470.495C423.564 466.181 426.981 461.908 430.478 457.681L430.864 458C434.335 453.804 437.886 449.653 441.511 445.552L441.136 445.22C444.75 441.132 448.438 437.093 452.194 433.108L452.558 433.451C456.301 429.48 460.112 425.563 463.986 421.705L463.633 421.35C467.507 417.493 471.444 413.694 475.438 409.958L475.78 410.323C479.772 406.589 483.822 402.919 487.925 399.317L487.595 398.941C491.709 395.329 495.876 391.786 500.091 388.315L500.409 388.701C504.633 385.222 508.906 381.817 513.222 378.49L512.916 378.094C517.257 374.748 521.641 371.481 526.064 368.298L526.356 368.704C530.807 365.5 535.297 362.381 539.82 359.353L539.542 358.937C544.107 355.881 548.706 352.916 553.334 350.047L553.598 350.472C558.266 347.579 562.963 344.784 567.684 342.092L567.437 341.658C572.217 338.933 577.021 336.314 581.843 333.807L582.074 334.25C586.953 331.713 591.851 329.291 596.762 326.988L596.549 326.535C601.538 324.196 606.54 321.981 611.549 319.894L611.741 320.356C616.824 318.239 621.913 316.256 627.003 314.412L626.833 313.942C632.02 312.063 637.208 310.328 642.389 308.746L642.535 309.224C647.806 307.613 653.07 306.16 658.32 304.871L658.2 304.385C663.563 303.068 668.912 301.921 674.238 300.952L674.327 301.444C679.75 300.457 685.15 299.655 690.517 299.046L690.461 298.549C695.946 297.926 701.399 297.504 706.81 297.291L706.83 297.791C709.557 297.683 712.273 297.629 714.977 297.629C717.584 297.629 720.186 297.705 722.784 297.856L722.813 297.357C728.017 297.659 733.2 298.26 738.358 299.145L738.274 299.637C743.37 300.511 748.443 301.664 753.489 303.081L753.624 302.6C758.603 303.998 763.555 305.654 768.475 307.553L768.295 308.019C773.096 309.873 777.868 311.959 782.608 314.266L782.826 313.816C787.463 316.073 792.067 318.541 796.635 321.207L796.383 321.639C800.826 324.231 805.236 327.013 809.609 329.973L809.89 329.559C814.162 332.451 818.399 335.512 822.598 338.732L822.294 339.129C826.384 342.266 830.439 345.555 834.456 348.988L834.781 348.607C838.712 351.967 842.607 355.463 846.462 359.087L846.119 359.451C849.877 362.984 853.598 366.638 857.28 370.407L857.637 370.058C861.246 373.753 864.817 377.557 868.347 381.463L867.976 381.798C871.442 385.633 874.869 389.566 878.255 393.59L878.638 393.268C881.976 397.236 885.274 401.292 888.53 405.43L888.137 405.739C891.346 409.817 894.515 413.974 897.641 418.204L898.043 417.907C901.129 422.084 904.174 426.331 907.175 430.644L906.764 430.929C909.727 435.187 912.648 439.507 915.525 443.885L915.943 443.611C918.799 447.958 921.612 452.362 924.38 456.816L923.956 457.08C926.703 461.501 929.407 465.972 932.064 470.487L932.495 470.234C935.138 474.726 937.736 479.261 940.287 483.835L939.85 484.078C942.387 488.628 944.877 493.215 947.319 497.834L947.761 497.6C950.201 502.215 952.593 506.862 954.934 511.535L954.487 511.759C956.826 516.427 959.115 521.121 961.353 525.836L961.804 525.622C964.045 530.344 966.235 535.087 968.371 539.845L967.915 540.05C970.057 544.823 972.147 549.612 974.181 554.41L974.641 554.215C976.687 559.04 978.676 563.874 980.608 568.712L980.144 568.898C982.086 573.762 983.97 578.63 985.794 583.496L986.262 583.321C988.102 588.229 989.881 593.136 991.598 598.035L991.126 598.2C992.865 603.162 994.539 608.117 996.148 613.057L996.624 612.903C998.253 617.908 999.816 622.9 1001.31 627.871L1000.83 628.015C1002.34 633.054 1003.78 638.072 1005.15 643.062L1005.64 642.93C1007.03 648.008 1008.34 653.058 1009.58 658.072L1009.1 658.191C1010.36 663.307 1011.54 668.385 1012.64 673.419L1013.13 673.312C1014.26 678.491 1015.3 683.623 1016.26 688.7L1015.76 688.792C1016.74 694.004 1017.62 699.158 1018.41 704.243L1018.9 704.167C1019.71 709.422 1020.41 714.605 1021.01 719.706L1020.51 719.765C1021.13 725.051 1021.63 730.249 1022.02 735.347L1022.52 735.31C1022.92 740.639 1023.19 745.86 1023.33 750.961L1022.83 750.975C1022.9 753.581 1022.93 756.156 1022.93 758.698Z" stroke="#F06500" stroke-dasharray="16 16"/>
<path d="M995.804 729.633C995.804 732.364 995.727 735.075 995.573 737.768L996.072 737.796C995.761 743.249 995.139 748.624 994.223 753.92L993.73 753.835C992.807 759.168 991.584 764.422 990.076 769.594L990.556 769.734C989.043 774.924 987.245 780.033 985.177 785.059L984.714 784.868C982.671 789.833 980.363 794.718 977.806 799.522L978.248 799.757C975.723 804.499 972.957 809.162 969.963 813.744L969.544 813.47C966.62 817.946 963.477 822.345 960.13 826.667L960.525 826.973C957.246 831.206 953.772 835.364 950.115 839.446L949.742 839.113C946.177 843.093 942.437 847.001 938.534 850.837L938.885 851.193C935.064 854.949 931.088 858.634 926.967 862.249L926.638 861.873C922.615 865.401 918.455 868.863 914.167 872.256L914.477 872.648C910.273 875.974 905.948 879.234 901.51 882.428L901.218 882.022C896.869 885.152 892.412 888.218 887.856 891.22L888.131 891.637C883.646 894.592 879.065 897.484 874.397 900.313L874.138 899.886C869.544 902.67 864.865 905.393 860.111 908.054L860.355 908.491C855.656 911.121 850.883 913.69 846.045 916.199L845.814 915.755C841.033 918.234 836.186 920.653 831.282 923.012L831.499 923.463C826.635 925.803 821.715 928.083 816.747 930.304L816.543 929.848C811.615 932.051 806.639 934.195 801.623 936.28L801.815 936.742C796.823 938.817 791.792 940.833 786.728 942.789L786.548 942.323C781.505 944.271 776.43 946.16 771.33 947.99L771.499 948.461C766.4 950.29 761.276 952.06 756.134 953.77L755.976 953.296C750.834 955.006 745.673 956.656 740.502 958.246L740.649 958.724C735.46 960.319 730.26 961.853 725.057 963.326L724.921 962.845C719.697 964.323 714.47 965.74 709.246 967.094L709.372 967.578C704.109 968.942 698.85 970.242 693.603 971.478L693.489 970.992C688.19 972.24 682.903 973.423 677.636 974.54L677.74 975.029C672.4 976.162 667.081 977.226 661.79 978.222L661.697 977.731C656.329 978.742 650.991 979.682 645.69 980.55L645.771 981.044C640.369 981.929 635.006 982.741 629.691 983.478L629.622 982.983C624.195 983.735 618.819 984.41 613.501 985.007L613.557 985.504C608.098 986.116 602.701 986.646 597.376 987.092L597.335 986.594C591.852 987.054 586.446 987.425 581.13 987.707L581.157 988.206C575.641 988.499 570.221 988.695 564.909 988.794L564.899 988.294C562.192 988.345 559.512 988.37 556.862 988.37C554.168 988.37 551.498 988.316 548.852 988.21L548.832 988.709C543.441 988.492 538.148 988.056 532.955 987.411L533.016 986.914C527.691 986.252 522.47 985.369 517.353 984.275L517.248 984.764C512.003 983.642 506.866 982.298 501.837 980.743L501.985 980.265C496.891 978.69 491.908 976.897 487.035 974.897L486.845 975.359C481.91 973.334 477.088 971.097 472.378 968.659L472.608 968.215C467.899 965.778 463.302 963.14 458.817 960.311L458.55 960.734C454.065 957.905 449.691 954.887 445.429 951.69L445.729 951.29C441.505 948.122 437.389 944.778 433.383 941.269L433.053 941.645C429.076 938.162 425.206 934.516 421.442 930.719L421.797 930.367C418.086 926.622 414.477 922.73 410.972 918.699L410.595 919.027C407.129 915.042 403.763 910.922 400.498 906.677L400.894 906.372C397.683 902.198 394.569 897.904 391.551 893.497L391.139 893.779C388.157 889.426 385.269 884.963 382.475 880.401L382.901 880.14C380.148 875.645 377.486 871.053 374.914 866.372L374.476 866.613C371.932 861.983 369.476 857.268 367.109 852.474L367.557 852.252C365.22 847.519 362.968 842.71 360.802 837.832L360.345 838.035C358.198 833.201 356.134 828.301 354.154 823.341L354.619 823.155C352.659 818.245 350.78 813.277 348.983 808.257L348.513 808.426C346.727 803.439 345.022 798.402 343.396 793.323L343.872 793.17C342.258 788.126 340.723 783.041 339.266 777.92L338.785 778.057C337.333 772.954 335.959 767.817 334.662 762.652L335.147 762.53C333.855 757.385 332.64 752.213 331.501 747.021L331.013 747.128C329.874 741.937 328.813 736.726 327.827 731.502L328.318 731.409C327.332 726.187 326.423 720.952 325.589 715.712L325.095 715.79C324.259 710.533 323.498 705.269 322.813 700.007L323.309 699.942C322.622 694.663 322.011 689.384 321.476 684.114L320.978 684.165C320.44 678.858 319.978 673.56 319.592 668.278L320.091 668.241C319.702 662.92 319.392 657.616 319.158 652.335L318.659 652.357C318.422 647.017 318.265 641.7 318.186 636.416L318.686 636.409C318.647 633.753 318.627 631.106 318.627 628.467C318.627 625.76 318.684 623.042 318.797 620.316L318.298 620.295C318.522 614.878 318.968 609.428 319.624 603.952L320.121 604.012C320.765 598.645 321.612 593.254 322.655 587.846L322.164 587.751C323.189 582.434 324.403 577.1 325.797 571.759L326.281 571.885C327.646 566.655 329.184 561.416 330.888 556.176L330.413 556.021C332.088 550.869 333.924 545.716 335.912 540.57L336.378 540.75C338.328 535.702 340.425 530.659 342.663 525.628L342.206 525.424C344.411 520.468 346.751 515.524 349.221 510.597L349.668 510.822C352.097 505.975 354.652 501.146 357.327 496.34L356.89 496.097C359.531 491.349 362.289 486.624 365.157 481.926L365.584 482.187C368.414 477.551 371.352 472.943 374.392 468.367L373.976 468.09C376.987 463.557 380.098 459.055 383.304 454.591L383.71 454.882C386.883 450.462 390.149 446.079 393.502 441.736L393.106 441.431C396.437 437.117 399.854 432.844 403.351 428.616L403.737 428.935C407.208 424.739 410.759 420.588 414.384 416.487L414.009 416.156C417.623 412.067 421.311 408.028 425.067 404.043L425.431 404.386C429.174 400.415 432.985 396.498 436.859 392.64L436.506 392.286C440.38 388.428 444.317 384.629 448.311 380.893L448.653 381.258C452.645 377.525 456.695 373.855 460.798 370.253L460.468 369.877C464.582 366.265 468.749 362.721 472.964 359.25L473.282 359.636C477.506 356.158 481.779 352.753 486.095 349.426L485.789 349.03C490.13 345.684 494.514 342.417 498.937 339.233L499.229 339.639C503.68 336.436 508.17 333.317 512.693 330.288L512.415 329.873C516.98 326.816 521.579 323.851 526.208 320.983L526.471 321.408C531.139 318.514 535.837 315.719 540.557 313.028L540.31 312.594C545.09 309.869 549.894 307.25 554.716 304.742L554.947 305.186C559.826 302.649 564.724 300.226 569.635 297.924L569.423 297.471C574.411 295.132 579.413 292.916 584.422 290.83L584.614 291.292C589.697 289.174 594.786 287.191 599.876 285.347L599.706 284.877C604.893 282.998 610.081 281.264 615.262 279.681L615.409 280.159C620.679 278.549 625.943 277.096 631.193 275.806L631.073 275.321C636.436 274.003 641.785 272.856 647.111 271.887L647.2 272.379C652.624 271.392 658.023 270.591 663.39 269.981L663.334 269.485C668.82 268.862 674.272 268.44 679.683 268.227L679.703 268.726C682.43 268.619 685.146 268.564 687.85 268.564C690.457 268.564 693.059 268.641 695.657 268.792L695.686 268.293C700.89 268.595 706.073 269.196 711.231 270.08L711.147 270.573C716.243 271.447 721.316 272.599 726.362 274.017L726.497 273.535C731.476 274.934 736.428 276.589 741.348 278.489L741.168 278.955C745.969 280.808 750.741 282.894 755.481 285.201L755.7 284.752C760.336 287.009 764.94 289.476 769.508 292.142L769.256 292.574C773.699 295.167 778.109 297.949 782.482 300.909L782.763 300.495C787.035 303.386 791.272 306.447 795.471 309.668L795.167 310.065C799.257 313.202 803.312 316.491 807.329 319.923L807.654 319.543C811.585 322.902 815.48 326.398 819.335 330.022L818.992 330.387C822.75 333.919 826.471 337.574 830.153 341.343L830.51 340.993C834.119 344.688 837.69 348.492 841.22 352.398L840.849 352.733C844.315 356.568 847.742 360.501 851.128 364.526L851.511 364.204C854.849 368.171 858.147 372.227 861.403 376.365L861.01 376.674C864.22 380.752 867.388 384.909 870.514 389.14L870.916 388.843C874.002 393.019 877.047 397.267 880.048 401.579L879.638 401.865C882.6 406.122 885.521 410.443 888.398 414.821L888.816 414.546C891.672 418.894 894.485 423.297 897.254 427.751L896.829 428.015C899.576 432.436 902.28 436.908 904.937 441.423L905.368 441.169C908.011 445.661 910.609 450.197 913.16 454.77L912.723 455.014C915.26 459.563 917.75 464.15 920.192 468.769L920.634 468.535C923.074 473.15 925.466 477.798 927.807 482.471L927.36 482.695C929.699 487.363 931.988 492.057 934.226 496.772L934.677 496.558C936.918 501.279 939.108 506.022 941.244 510.78L940.788 510.985C942.931 515.759 945.02 520.547 947.054 525.346L947.514 525.151C949.56 529.975 951.549 534.809 953.481 539.648L953.017 539.833C954.959 544.697 956.843 549.565 958.667 554.432L959.135 554.256C960.975 559.164 962.754 564.071 964.471 568.97L963.999 569.136C965.738 574.098 967.412 579.052 969.021 583.993L969.497 583.838C971.127 588.844 972.689 593.836 974.182 598.807L973.703 598.95C975.216 603.99 976.658 609.008 978.026 613.998L978.508 613.865C979.901 618.944 981.218 623.993 982.456 629.007L981.971 629.127C983.234 634.243 984.417 639.321 985.516 644.354L986.004 644.247C987.135 649.427 988.178 654.559 989.129 659.635L988.638 659.727C989.615 664.94 990.497 670.093 991.28 675.179L991.774 675.102C992.583 680.358 993.287 685.541 993.884 690.642L993.387 690.7C994.005 695.986 994.508 701.184 994.891 706.283L995.39 706.245C995.79 711.574 996.061 716.796 996.199 721.897L995.699 721.91C995.769 724.517 995.804 727.092 995.804 729.633Z" stroke="#F06500" stroke-dasharray="16 16"/>
<path d="M968.677 700.569C968.677 703.299 968.6 706.011 968.446 708.703L968.945 708.732C968.634 714.184 968.012 719.559 967.096 724.856L966.603 724.771C965.68 730.104 964.457 735.357 962.949 740.53L963.429 740.67C961.916 745.86 960.118 750.968 958.05 755.994L957.587 755.804C955.544 760.769 953.236 765.654 950.679 770.458L951.121 770.693C948.596 775.435 945.83 780.097 942.836 784.679L942.417 784.406C939.493 788.881 936.35 793.281 933.003 797.602L933.398 797.908C930.119 802.141 926.645 806.3 922.988 810.382L922.615 810.048C919.05 814.028 915.31 817.937 911.407 821.772L911.758 822.129C907.937 825.884 903.961 829.57 899.84 833.184L899.511 832.808C895.488 836.337 891.328 839.798 887.04 843.191L887.35 843.583C883.146 846.909 878.821 850.17 874.383 853.364L874.091 852.958C869.742 856.087 865.285 859.154 860.729 862.155L861.004 862.573C856.519 865.528 851.938 868.42 847.27 871.249L847.011 870.821C842.417 873.606 837.738 876.329 832.984 878.99L833.228 879.426C828.529 882.056 823.757 884.626 818.918 887.134L818.688 886.69C813.906 889.169 809.059 891.589 804.155 893.948L804.372 894.398C799.508 896.738 794.588 899.019 789.62 901.24L789.416 900.784C784.488 902.987 779.512 905.131 774.496 907.216L774.688 907.678C769.696 909.752 764.665 911.768 759.601 913.724L759.421 913.258C754.378 915.206 749.303 917.096 744.203 918.925L744.372 919.396C739.273 921.226 734.149 922.996 729.007 924.706L728.849 924.231C723.707 925.942 718.546 927.592 713.375 929.181L713.522 929.659C708.333 931.255 703.133 932.789 697.93 934.261L697.794 933.78C692.57 935.259 687.343 936.675 682.119 938.029L682.245 938.513C676.982 939.877 671.723 941.178 666.477 942.414L666.362 941.927C661.063 943.176 655.776 944.359 650.509 945.476L650.613 945.965C645.273 947.097 639.954 948.162 634.663 949.158L634.57 948.667C629.202 949.677 623.864 950.617 618.563 951.486L618.644 951.979C613.242 952.865 607.879 953.676 602.564 954.413L602.495 953.918C597.068 954.671 591.692 955.346 586.374 955.942L586.43 956.439C580.971 957.052 575.574 957.581 570.249 958.028L570.208 957.53C564.725 957.989 559.32 958.361 554.003 958.642L554.03 959.142C548.514 959.434 543.094 959.63 537.782 959.73L537.772 959.23C535.065 959.28 532.385 959.306 529.735 959.306C527.041 959.306 524.371 959.252 521.725 959.145L521.705 959.645C516.314 959.428 511.021 958.992 505.828 958.346L505.889 957.85C500.564 957.188 495.343 956.305 490.226 955.21L490.121 955.699C484.876 954.577 479.74 953.233 474.711 951.678L474.858 951.201C469.764 949.625 464.781 947.832 459.908 945.832L459.718 946.295C454.783 944.27 449.961 942.033 445.251 939.595L445.481 939.151C440.772 936.714 436.175 934.076 431.69 931.247L431.423 931.67C426.938 928.841 422.564 925.823 418.302 922.626L418.602 922.226C414.378 919.058 410.262 915.714 406.256 912.204L405.926 912.581C401.949 909.097 398.079 905.452 394.315 901.654L394.67 901.302C390.959 897.558 387.35 893.665 383.845 889.634L383.468 889.963C380.002 885.977 376.636 881.857 373.371 877.613L373.767 877.308C370.556 873.134 367.442 868.839 364.424 864.432L364.012 864.715C361.03 860.361 358.142 855.899 355.348 851.337L355.774 851.076C353.021 846.58 350.359 841.988 347.787 837.307L347.349 837.548C344.805 832.919 342.349 828.203 339.982 823.409L340.43 823.188C338.093 818.455 335.841 813.646 333.675 808.768L333.218 808.971C331.071 804.137 329.007 799.236 327.028 794.276L327.492 794.091C325.532 789.181 323.653 784.212 321.856 779.193L321.386 779.362C319.6 774.374 317.895 769.338 316.269 764.258L316.745 764.106C315.131 759.062 313.596 753.976 312.139 748.856L311.658 748.993C310.206 743.89 308.832 738.752 307.535 733.588L308.02 733.466C306.728 728.321 305.513 723.149 304.374 717.956L303.886 718.063C302.748 712.872 301.686 707.661 300.7 702.438L301.191 702.345C300.205 697.123 299.296 691.888 298.462 686.647L297.968 686.726C297.132 681.468 296.371 676.205 295.686 670.942L296.182 670.878C295.495 665.598 294.884 660.32 294.349 655.05L293.852 655.101C293.313 649.794 292.851 644.495 292.465 639.213L292.964 639.177C292.575 633.856 292.265 628.551 292.031 623.27L291.532 623.293C291.296 617.952 291.138 612.636 291.059 607.352L291.559 607.344C291.52 604.689 291.5 602.041 291.5 599.403C291.5 596.695 291.557 593.978 291.67 591.252L291.171 591.231C291.395 585.814 291.841 580.363 292.497 574.888L292.994 574.948C293.638 569.581 294.485 564.19 295.528 558.782L295.037 558.687C296.062 553.369 297.276 548.036 298.67 542.694L299.154 542.821C300.519 537.59 302.057 532.351 303.761 527.111L303.286 526.957C304.961 521.805 306.797 516.652 308.785 511.505L309.251 511.685C311.201 506.637 313.299 501.594 315.536 496.563L315.079 496.36C317.284 491.404 319.624 486.46 322.094 481.533L322.541 481.757C324.97 476.911 327.525 472.082 330.2 467.275L329.763 467.032C332.404 462.285 335.162 457.559 338.03 452.862L338.457 453.123C341.287 448.487 344.225 443.879 347.265 439.302L346.849 439.026C349.86 434.492 352.971 429.991 356.177 425.526L356.583 425.818C359.756 421.398 363.022 417.014 366.375 412.672L365.979 412.366C369.31 408.053 372.727 403.779 376.225 399.552L376.61 399.871C380.081 395.675 383.632 391.524 387.257 387.423L386.882 387.092C390.496 383.003 394.184 378.964 397.94 374.979L398.304 375.322C402.047 371.351 405.858 367.434 409.732 363.576L409.379 363.221C413.253 359.364 417.19 355.565 421.184 351.829L421.526 352.194C425.518 348.461 429.568 344.79 433.671 341.188L433.341 340.812C437.455 337.201 441.622 333.657 445.837 330.186L446.155 330.572C450.379 327.094 454.652 323.688 458.968 320.361L458.662 319.965C463.003 316.619 467.388 313.352 471.81 310.169L472.102 310.575C476.553 307.371 481.043 304.253 485.566 301.224L485.288 300.809C489.853 297.752 494.452 294.787 499.081 291.918L499.344 292.343C504.012 289.45 508.71 286.655 513.43 283.963L513.183 283.529C517.963 280.804 522.767 278.185 527.589 275.678L527.82 276.121C532.699 273.584 537.597 271.162 542.508 268.859L542.296 268.407C547.284 266.067 552.286 263.852 557.295 261.766L557.487 262.227C562.57 260.11 567.659 258.127 572.749 256.283L572.579 255.813C577.766 253.934 582.954 252.2 588.135 250.617L588.282 251.095C593.553 249.485 598.816 248.031 604.066 246.742L603.946 246.256C609.309 244.939 614.658 243.792 619.984 242.823L620.073 243.315C625.497 242.328 630.896 241.526 636.263 240.917L636.207 240.42C641.693 239.797 647.145 239.375 652.556 239.162L652.576 239.662C655.303 239.554 658.019 239.5 660.723 239.5C663.33 239.5 665.932 239.576 668.53 239.727L668.559 239.228C673.763 239.53 678.946 240.131 684.104 241.016L684.02 241.509C689.116 242.383 694.189 243.535 699.235 244.952L699.37 244.471C704.349 245.869 709.301 247.525 714.221 249.424L714.041 249.891C718.842 251.744 723.615 253.83 728.354 256.137L728.573 255.687C733.209 257.944 737.813 260.412 742.381 263.078L742.129 263.51C746.572 266.103 750.982 268.884 755.355 271.844L755.636 271.43C759.908 274.322 764.145 277.383 768.344 280.603L768.04 281C772.13 284.137 776.185 287.426 780.202 290.859L780.527 290.479C784.458 293.838 788.353 297.334 792.208 300.958L791.865 301.322C795.624 304.855 799.344 308.51 803.026 312.278L803.383 311.929C806.992 315.624 810.563 319.428 814.093 323.334L813.722 323.669C817.188 327.504 820.615 331.437 824.001 335.461L824.384 335.139C827.722 339.107 831.02 343.163 834.276 347.301L833.884 347.61C837.093 351.688 840.261 355.845 843.387 360.075L843.789 359.778C846.875 363.955 849.92 368.202 852.921 372.515L852.511 372.8C855.473 377.058 858.394 381.378 861.271 385.756L861.689 385.482C864.545 389.829 867.358 394.233 870.127 398.687L869.702 398.951C872.45 403.372 875.153 407.843 877.81 412.358L878.241 412.105C880.884 416.597 883.482 421.132 886.033 425.706L885.596 425.95C888.133 430.499 890.623 435.086 893.065 439.705L893.507 439.471C895.947 444.086 898.339 448.733 900.68 453.407L900.233 453.631C902.572 458.298 904.861 462.992 907.099 467.707L907.55 467.493C909.791 472.215 911.981 476.958 914.117 481.716L913.661 481.921C915.804 486.694 917.893 491.483 919.927 496.281L920.388 496.086C922.433 500.911 924.422 505.745 926.354 510.583L925.89 510.769C927.832 515.633 929.716 520.501 931.54 525.367L932.008 525.192C933.848 530.1 935.627 535.007 937.344 539.906L936.872 540.071C938.611 545.033 940.286 549.988 941.894 554.929L942.37 554.774C944 559.78 945.562 564.771 947.055 569.742L946.576 569.886C948.089 574.925 949.531 579.943 950.899 584.933L951.381 584.801C952.774 589.879 954.091 594.929 955.329 599.943L954.844 600.062C956.108 605.178 957.29 610.257 958.389 615.29L958.877 615.183C960.008 620.363 961.051 625.495 962.002 630.571L961.511 630.663C962.488 635.875 963.37 641.029 964.153 646.114L964.647 646.038C965.456 651.293 966.16 656.476 966.757 661.578L966.26 661.636C966.878 666.922 967.381 672.12 967.764 677.218L968.263 677.181C968.663 682.51 968.934 687.731 969.072 692.833L968.572 692.846C968.642 695.452 968.677 698.027 968.677 700.569Z" stroke="#F06500" stroke-dasharray="16 16"/>
<g filter="url(#filter0_f_89101_1488)">
<circle cx="646" cy="646" r="146" fill="#FFA800"/>
</g>
<defs>
<filter id="filter0_f_89101_1488" x="0" y="0" width="1292" height="1292" filterUnits="userSpaceOnUse" color-interpolation-filters="sRGB">
<feFlood flood-opacity="0" result="BackgroundImageFix"/>
<feBlend mode="normal" in="SourceGraphic" in2="BackgroundImageFix" result="shape"/>
<feGaussianBlur stdDeviation="250" result="effect1_foregroundBlur_89101_1488"/>
</filter>
</defs>
</svg>
